solid OpenSCAD_Model
  facet normal 1 -0 0
    outer loop
      vertex 3 31.2843 10
      vertex 3 97 3
      vertex 3 97 10
    endloop
  endfacet
  facet normal 1 0 0
    outer loop
      vertex 3 97 3
      vertex 3 31.2843 10
      vertex 3 31.2843 3
    endloop
  endfacet
  facet normal 0 0 1
    outer loop
      vertex 3 31.2843 3
      vertex 5.04386 48.8442 3
      vertex 4.78647 49.1183 3
    endloop
  endfacet
  facet normal 0 0 1
    outer loop
      vertex 3 31.2843 3
      vertex 4.78647 49.1183 3
      vertex 4.60534 49.4478 3
    endloop
  endfacet
  facet normal 0 0 1
    outer loop
      vertex 3 31.2843 3
      vertex 4.60534 49.4478 3
      vertex 4.51183 49.812 3
    endloop
  endfacet
  facet normal 0 0 1
    outer loop
      vertex 5.04386 48.8442 3
      vertex 3 31.2843 3
      vertex 5 30 3
    endloop
  endfacet
  facet normal 0 0 1
    outer loop
      vertex 20 80 3
      vertex 7.5 50 3
      vertex 20 20 3
    endloop
  endfacet
  facet normal 0 0 1
    outer loop
      vertex 20 80 3
      vertex 7.45287 50.373 3
      vertex 7.5 50 3
    endloop
  endfacet
  facet normal 0 0 1
    outer loop
      vertex 20 80 3
      vertex 7.31446 50.7226 3
      vertex 7.45287 50.373 3
    endloop
  endfacet
  facet normal 0 0 1
    outer loop
      vertex 20 80 3
      vertex 7.09345 51.0268 3
      vertex 7.31446 50.7226 3
    endloop
  endfacet
  facet normal 0 0 1
    outer loop
      vertex 20 80 3
      vertex 6.80374 51.2665 3
      vertex 7.09345 51.0268 3
    endloop
  endfacet
  facet normal 0 0 1
    outer loop
      vertex 20 80 3
      vertex 6.46352 51.4266 3
      vertex 6.80374 51.2665 3
    endloop
  endfacet
  facet normal 0 0 1
    outer loop
      vertex 20 80 3
      vertex 6.09418 51.497 3
      vertex 6.46352 51.4266 3
    endloop
  endfacet
  facet normal 0 0 1
    outer loop
      vertex 20 80 3
      vertex 5.71893 51.4734 3
      vertex 6.09418 51.497 3
    endloop
  endfacet
  facet normal 0 0 1
    outer loop
      vertex 20 80 3
      vertex 5.36133 51.3572 3
      vertex 5.71893 51.4734 3
    endloop
  endfacet
  facet normal 0 0 1
    outer loop
      vertex 3 97 3
      vertex 5.36133 51.3572 3
      vertex 20 80 3
    endloop
  endfacet
  facet normal 0 0 1
    outer loop
      vertex 5.36133 51.3572 3
      vertex 3 97 3
      vertex 5.04386 51.1558 3
    endloop
  endfacet
  facet normal 0 0 1
    outer loop
      vertex 5.04386 51.1558 3
      vertex 3 97 3
      vertex 4.78647 50.8817 3
    endloop
  endfacet
  facet normal 0 0 1
    outer loop
      vertex 3 31.2843 3
      vertex 4.51183 49.812 3
      vertex 4.51183 50.188 3
    endloop
  endfacet
  facet normal 0 0 1
    outer loop
      vertex 4.78647 50.8817 3
      vertex 3 97 3
      vertex 4.60534 50.5522 3
    endloop
  endfacet
  facet normal 0 0 1
    outer loop
      vertex 3 97 3
      vertex 4.51183 50.188 3
      vertex 4.60534 50.5522 3
    endloop
  endfacet
  facet normal 0 0 1
    outer loop
      vertex 3 31.2843 3
      vertex 4.51183 50.188 3
      vertex 3 97 3
    endloop
  endfacet
  facet normal 0 0 1
    outer loop
      vertex 5 30 3
      vertex 3 31.2843 3
      vertex 4.28427 30 3
    endloop
  endfacet
  facet normal 0 0 1
    outer loop
      vertex 80 20 3
      vertex 31.2843 3 3
      vertex 97 3 3
    endloop
  endfacet
  facet normal -0 0 1
    outer loop
      vertex 20 20 3
      vertex 31.2843 3 3
      vertex 80 20 3
    endloop
  endfacet
  facet normal -0 0 1
    outer loop
      vertex 7.45287 49.627 3
      vertex 20 20 3
      vertex 7.5 50 3
    endloop
  endfacet
  facet normal -0 0 1
    outer loop
      vertex 7.31446 49.2774 3
      vertex 20 20 3
      vertex 7.45287 49.627 3
    endloop
  endfacet
  facet normal -0 0 1
    outer loop
      vertex 7.09345 48.9732 3
      vertex 20 20 3
      vertex 7.31446 49.2774 3
    endloop
  endfacet
  facet normal 0 0 1
    outer loop
      vertex 5 30 3
      vertex 7.09345 48.9732 3
      vertex 6.80374 48.7335 3
    endloop
  endfacet
  facet normal 0 0 1
    outer loop
      vertex 5 30 3
      vertex 6.80374 48.7335 3
      vertex 6.46352 48.5734 3
    endloop
  endfacet
  facet normal 0 0 1
    outer loop
      vertex 5 30 3
      vertex 6.46352 48.5734 3
      vertex 6.09418 48.503 3
    endloop
  endfacet
  facet normal 0 0 1
    outer loop
      vertex 5 30 3
      vertex 6.09418 48.503 3
      vertex 5.71893 48.5266 3
    endloop
  endfacet
  facet normal 0 0 1
    outer loop
      vertex 5 30 3
      vertex 5.71893 48.5266 3
      vertex 5.36133 48.6428 3
    endloop
  endfacet
  facet normal 0 0 1
    outer loop
      vertex 5 30 3
      vertex 5.36133 48.6428 3
      vertex 5.04386 48.8442 3
    endloop
  endfacet
  facet normal 0 0 1
    outer loop
      vertex 7.09345 48.9732 3
      vertex 5 30 3
      vertex 20 20 3
    endloop
  endfacet
  facet normal -0 0 1
    outer loop
      vertex 5 29.2843 3
      vertex 20 20 3
      vertex 5 30 3
    endloop
  endfacet
  facet normal 0 0 1
    outer loop
      vertex 20 20 3
      vertex 5 29.2843 3
      vertex 31.2843 3 3
    endloop
  endfacet
  facet normal 0 1 -0
    outer loop
      vertex 97 3 3
      vertex 31.2843 3 10
      vertex 97 3 10
    endloop
  endfacet
  facet normal 0 1 0
    outer loop
      vertex 31.2843 3 10
      vertex 97 3 3
      vertex 31.2843 3 3
    endloop
  endfacet
  facet normal 0.707107 0.707107 0
    outer loop
      vertex 4.28427 30 10
      vertex 3 31.2843 3
      vertex 3 31.2843 10
    endloop
  endfacet
  facet normal 0.707107 0.707107 0
    outer loop
      vertex 3 31.2843 3
      vertex 4.28427 30 10
      vertex 4.28427 30 3
    endloop
  endfacet
  facet normal 0.707107 0.707107 0
    outer loop
      vertex 31.2843 3 10
      vertex 5 29.2843 3
      vertex 5 29.2843 10
    endloop
  endfacet
  facet normal 0.707107 0.707107 0
    outer loop
      vertex 5 29.2843 3
      vertex 31.2843 3 10
      vertex 31.2843 3 3
    endloop
  endfacet
  facet normal -1 0 0
    outer loop
      vertex 0 97.5 0
      vertex 0 100 10
      vertex 0 100 0
    endloop
  endfacet
  facet normal -1 -0 0
    outer loop
      vertex 0 100 10
      vertex 0 97.5 0
      vertex 0 97.5 10
    endloop
  endfacet
  facet normal -1 0 0
    outer loop
      vertex 0 30 0
      vertex 0 92.5 10
      vertex 0 92.5 0
    endloop
  endfacet
  facet normal -1 -0 0
    outer loop
      vertex 0 92.5 10
      vertex 0 30 0
      vertex 0 30 10
    endloop
  endfacet
  facet normal -1 0 0
    outer loop
      vertex 0 10 2.31581
      vertex 0 20 1.78863
      vertex 0 10 1.78863
    endloop
  endfacet
  facet normal -1 0 0
    outer loop
      vertex 0 10 3.31304
      vertex 0 20 1.78863
      vertex 0 10 2.31581
    endloop
  endfacet
  facet normal -1 0 0
    outer loop
      vertex 0 10 6.19666
      vertex 0 20 1.78863
      vertex 0 10 3.31304
    endloop
  endfacet
  facet normal -1 0 0
    outer loop
      vertex 0 20 1.78863
      vertex 0 10 6.19666
      vertex 0 20 8.21137
    endloop
  endfacet
  facet normal -1 -0 0
    outer loop
      vertex 0 20 8.21137
      vertex 0 10 6.19666
      vertex 0 10 8.21137
    endloop
  endfacet
  facet normal -0 0 1
    outer loop
      vertex -5 30 10
      vertex -1.83272 20 10
      vertex 0 30 10
    endloop
  endfacet
  facet normal 0 0 1
    outer loop
      vertex -1.83272 20 10
      vertex -5 30 10
      vertex -5 20 10
    endloop
  endfacet
  facet normal 0 0 1
    outer loop
      vertex 3 97 10
      vertex 2.5 95 10
      vertex 3 31.2843 10
    endloop
  endfacet
  facet normal 0 0 1
    outer loop
      vertex 3 97 10
      vertex 1.76777 96.7678 10
      vertex 2.5 95 10
    endloop
  endfacet
  facet normal 0 0 1
    outer loop
      vertex 0 100 10
      vertex 1.76777 96.7678 10
      vertex 3 97 10
    endloop
  endfacet
  facet normal 0 0 1
    outer loop
      vertex 1.76777 96.7678 10
      vertex 0 100 10
      vertex 0 97.5 10
    endloop
  endfacet
  facet normal 0 0 1
    outer loop
      vertex 5 30 10
      vertex 4.28427 30 10
      vertex 5 29.2843 10
    endloop
  endfacet
  facet normal -0 0 1
    outer loop
      vertex 96.7678 1.76777 10
      vertex 100 0 10
      vertex 97 3 10
    endloop
  endfacet
  facet normal 0 0 1
    outer loop
      vertex 100 0 10
      vertex 96.7678 1.76777 10
      vertex 97.5 0 10
    endloop
  endfacet
  facet normal 0 0 1
    outer loop
      vertex 97 3 10
      vertex 95 2.5 10
      vertex 96.7678 1.76777 10
    endloop
  endfacet
  facet normal -0 0 1
    outer loop
      vertex 31.2843 3 10
      vertex 95 2.5 10
      vertex 97 3 10
    endloop
  endfacet
  facet normal 0 0 1
    outer loop
      vertex 31.2843 3 10
      vertex 93.2322 1.76777 10
      vertex 95 2.5 10
    endloop
  endfacet
  facet normal 0 0 1
    outer loop
      vertex 31.2843 3 10
      vertex 92.5 0 10
      vertex 93.2322 1.76777 10
    endloop
  endfacet
  facet normal -0 0 1
    outer loop
      vertex 0 30 10
      vertex 5 29.2843 10
      vertex 4.28427 30 10
    endloop
  endfacet
  facet normal 0 0 1
    outer loop
      vertex 0 30 10
      vertex 4.28427 30 10
      vertex 3 31.2843 10
    endloop
  endfacet
  facet normal -0 0 1
    outer loop
      vertex 1.76777 93.2322 10
      vertex 3 31.2843 10
      vertex 2.5 95 10
    endloop
  endfacet
  facet normal -0 0 1
    outer loop
      vertex 0 92.5 10
      vertex 3 31.2843 10
      vertex 1.76777 93.2322 10
    endloop
  endfacet
  facet normal 0 0 1
    outer loop
      vertex 0 30 10
      vertex 3 31.2843 10
      vertex 0 92.5 10
    endloop
  endfacet
  facet normal 0 0 1
    outer loop
      vertex 5 29.2843 10
      vertex 0 30 10
      vertex -1.83272 20 10
    endloop
  endfacet
  facet normal 0 0 1
    outer loop
      vertex -1.83272 10 10
      vertex 5 29.2843 10
      vertex -1.83272 20 10
    endloop
  endfacet
  facet normal 0 0 1
    outer loop
      vertex 5 29.2843 10
      vertex -1.83272 10 10
      vertex 31.2843 3 10
    endloop
  endfacet
  facet normal 0 0 1
    outer loop
      vertex -5 0 10
      vertex -1.83272 10 10
      vertex -2.50729 10 10
    endloop
  endfacet
  facet normal 0 0 1
    outer loop
      vertex -5 0 10
      vertex -2.50729 10 10
      vertex -4.16826 10 10
    endloop
  endfacet
  facet normal 0 0 1
    outer loop
      vertex -5 0 10
      vertex -4.16826 10 10
      vertex -5 10 10
    endloop
  endfacet
  facet normal 0 0 1
    outer loop
      vertex 31.2843 3 10
      vertex -5 0 10
      vertex 92.5 0 10
    endloop
  endfacet
  facet normal 0 0 1
    outer loop
      vertex -1.83272 10 10
      vertex -5 0 10
      vertex 31.2843 3 10
    endloop
  endfacet
  facet normal 0 0 -1
    outer loop
      vertex -1.76777 93.2322 0
      vertex 0 97.5 0
      vertex 0 92.5 0
    endloop
  endfacet
  facet normal 0 0 -1
    outer loop
      vertex -1.76777 93.2322 0
      vertex -1.76777 96.7678 0
      vertex 0 97.5 0
    endloop
  endfacet
  facet normal 0 -0 -1
    outer loop
      vertex -1.76777 96.7678 0
      vertex -1.76777 93.2322 0
      vertex -2.5 95 0
    endloop
  endfacet
  facet normal 0 0 -1
    outer loop
      vertex 5 10.416 0
      vertex 5.84805 12.752 0
      vertex 5.96005 10.416 0
    endloop
  endfacet
  facet normal -0 0 -1
    outer loop
      vertex 5.84805 12.752 0
      vertex 5 10.416 0
      vertex 5 13.3606 0
    endloop
  endfacet
  facet normal 0 0 -1
    outer loop
      vertex 20 20 0
      vertex 7.45287 49.627 0
      vertex 7.5 50 0
    endloop
  endfacet
  facet normal 0 0 -1
    outer loop
      vertex 9.429 13.84 0
      vertex 7.31446 49.2774 0
      vertex 7.45287 49.627 0
    endloop
  endfacet
  facet normal 0 0 -1
    outer loop
      vertex 6.09418 48.503 0
      vertex 9.429 13.84 0
      vertex 6.858 13.84 0
    endloop
  endfacet
  facet normal 0 0 -1
    outer loop
      vertex 9.429 13.84 0
      vertex 7.09345 48.9732 0
      vertex 7.31446 49.2774 0
    endloop
  endfacet
  facet normal 0 0 -1
    outer loop
      vertex 9.429 13.84 0
      vertex 6.80374 48.7335 0
      vertex 7.09345 48.9732 0
    endloop
  endfacet
  facet normal 0 0 -1
    outer loop
      vertex 9.429 13.84 0
      vertex 6.46352 48.5734 0
      vertex 6.80374 48.7335 0
    endloop
  endfacet
  facet normal 0 0 -1
    outer loop
      vertex 6.09418 48.503 0
      vertex 6.858 13.84 0
      vertex 6.31201 13.84 0
    endloop
  endfacet
  facet normal 0 0 -1
    outer loop
      vertex 9.429 13.84 0
      vertex 6.09418 48.503 0
      vertex 6.46352 48.5734 0
    endloop
  endfacet
  facet normal 0 0 -1
    outer loop
      vertex 95 -2.5 0
      vertex 97.5 0 0
      vertex 96.7678 -1.76777 0
    endloop
  endfacet
  facet normal 0 0 -1
    outer loop
      vertex 93.2322 -1.76777 0
      vertex 97.5 0 0
      vertex 95 -2.5 0
    endloop
  endfacet
  facet normal 0 0 -1
    outer loop
      vertex 92.5 0 0
      vertex 97.5 0 0
      vertex 93.2322 -1.76777 0
    endloop
  endfacet
  facet normal 0 0 -1
    outer loop
      vertex 80 20 0
      vertex 97.5 0 0
      vertex 92.5 0 0
    endloop
  endfacet
  facet normal 0 0 -1
    outer loop
      vertex 97.5 0 0
      vertex 80 20 0
      vertex 100 0 0
    endloop
  endfacet
  facet normal 0 0 -1
    outer loop
      vertex 92.5 0 0
      vertex 20 20 0
      vertex 80 20 0
    endloop
  endfacet
  facet normal 0 0 -1
    outer loop
      vertex 9.429 13.84 0
      vertex 20 20 0
      vertex 9.97601 13.84 0
    endloop
  endfacet
  facet normal 0 0 -1
    outer loop
      vertex 8.41301 10 0
      vertex 20 20 0
      vertex 92.5 0 0
    endloop
  endfacet
  facet normal 0 0 -1
    outer loop
      vertex 20 20 0
      vertex 8.41301 10 0
      vertex 9.97601 13.84 0
    endloop
  endfacet
  facet normal 0 0 -1
    outer loop
      vertex -5 0 0
      vertex 8.41301 10 0
      vertex 92.5 0 0
    endloop
  endfacet
  facet normal 0 0 -1
    outer loop
      vertex 5.84805 12.752 0
      vertex 7.875 10 0
      vertex 5.96005 10.416 0
    endloop
  endfacet
  facet normal 0 0 -1
    outer loop
      vertex 5.96005 10.416 0
      vertex 7.875 10 0
      vertex 5.96005 10 0
    endloop
  endfacet
  facet normal -0 0 -1
    outer loop
      vertex 8.41301 10 0
      vertex -5 0 0
      vertex 7.875 10 0
    endloop
  endfacet
  facet normal -0 0 -1
    outer loop
      vertex 7.875 10 0
      vertex -5 0 0
      vertex 5.96005 10 0
    endloop
  endfacet
  facet normal 0 0 -1
    outer loop
      vertex -1.83272 10 0
      vertex 5 10.416 0
      vertex 5 10 0
    endloop
  endfacet
  facet normal -0 0 -1
    outer loop
      vertex 5 10.416 0
      vertex -1.83272 10 0
      vertex 5 13.3606 0
    endloop
  endfacet
  facet normal -0 0 -1
    outer loop
      vertex 5 13.3606 0
      vertex -1.83272 10 0
      vertex 5 13.8006 0
    endloop
  endfacet
  facet normal 0 0 -1
    outer loop
      vertex 5 13.8006 0
      vertex 0 30 0
      vertex 4.78647 49.1183 0
    endloop
  endfacet
  facet normal -0 0 -1
    outer loop
      vertex 4.78647 49.1183 0
      vertex 0 30 0
      vertex 4.60534 49.4478 0
    endloop
  endfacet
  facet normal -0 0 -1
    outer loop
      vertex 4.51183 49.812 0
      vertex 0 30 0
      vertex 4.51183 50.188 0
    endloop
  endfacet
  facet normal -0 0 -1
    outer loop
      vertex 4.60534 49.4478 0
      vertex 0 30 0
      vertex 4.51183 49.812 0
    endloop
  endfacet
  facet normal -0 0 -1
    outer loop
      vertex 5 13.8006 0
      vertex -1.83272 10 0
      vertex -1.83272 20 0
    endloop
  endfacet
  facet normal -0 0 -1
    outer loop
      vertex 5.96005 10 0
      vertex -5 0 0
      vertex 5 10 0
    endloop
  endfacet
  facet normal 0 0 -1
    outer loop
      vertex 5 10 0
      vertex -5 0 0
      vertex -1.83272 10 0
    endloop
  endfacet
  facet normal -0 0 -1
    outer loop
      vertex -1.83272 10 0
      vertex -5 0 0
      vertex -5 10 0
    endloop
  endfacet
  facet normal 0 0 -1
    outer loop
      vertex 7.45287 49.627 0
      vertex 20 20 0
      vertex 9.429 13.84 0
    endloop
  endfacet
  facet normal 0 0 -1
    outer loop
      vertex 7.91301 11.136 0
      vertex 9.429 13.84 0
      vertex 8.369 11.136 0
    endloop
  endfacet
  facet normal 0 0 -1
    outer loop
      vertex 7.91301 11.136 0
      vertex 8.369 11.136 0
      vertex 8.14101 10.457 0
    endloop
  endfacet
  facet normal 0 0 -1
    outer loop
      vertex 6.858 13.84 0
      vertex 9.429 13.84 0
      vertex 7.91301 11.136 0
    endloop
  endfacet
  facet normal 0 0 -1
    outer loop
      vertex 20 20 0
      vertex 7.5 50 0
      vertex 20 80 0
    endloop
  endfacet
  facet normal 0 0 -1
    outer loop
      vertex 7.45287 50.373 0
      vertex 20 80 0
      vertex 7.5 50 0
    endloop
  endfacet
  facet normal 0 0 -1
    outer loop
      vertex 7.31446 50.7226 0
      vertex 20 80 0
      vertex 7.45287 50.373 0
    endloop
  endfacet
  facet normal 0 0 -1
    outer loop
      vertex 7.09345 51.0268 0
      vertex 20 80 0
      vertex 7.31446 50.7226 0
    endloop
  endfacet
  facet normal 0 0 -1
    outer loop
      vertex 6.80374 51.2665 0
      vertex 20 80 0
      vertex 7.09345 51.0268 0
    endloop
  endfacet
  facet normal 0 0 -1
    outer loop
      vertex 6.46352 51.4266 0
      vertex 20 80 0
      vertex 6.80374 51.2665 0
    endloop
  endfacet
  facet normal 0 0 -1
    outer loop
      vertex 6.09418 51.497 0
      vertex 20 80 0
      vertex 6.46352 51.4266 0
    endloop
  endfacet
  facet normal 0 0 -1
    outer loop
      vertex 5.71893 51.4734 0
      vertex 20 80 0
      vertex 6.09418 51.497 0
    endloop
  endfacet
  facet normal 0 0 -1
    outer loop
      vertex 0 92.5 0
      vertex 5.71893 51.4734 0
      vertex 5.36133 51.3572 0
    endloop
  endfacet
  facet normal 0 0 -1
    outer loop
      vertex 0 92.5 0
      vertex 5.36133 51.3572 0
      vertex 5.04386 51.1558 0
    endloop
  endfacet
  facet normal 0 0 -1
    outer loop
      vertex 0 92.5 0
      vertex 5.04386 51.1558 0
      vertex 4.78647 50.8817 0
    endloop
  endfacet
  facet normal 0 0 -1
    outer loop
      vertex 0 92.5 0
      vertex 4.78647 50.8817 0
      vertex 4.60534 50.5522 0
    endloop
  endfacet
  facet normal 0 0 -1
    outer loop
      vertex 0 92.5 0
      vertex 4.51183 50.188 0
      vertex 0 30 0
    endloop
  endfacet
  facet normal 0 0 -1
    outer loop
      vertex 0 92.5 0
      vertex 4.60534 50.5522 0
      vertex 4.51183 50.188 0
    endloop
  endfacet
  facet normal 0 0 -1
    outer loop
      vertex 5.71893 51.4734 0
      vertex 0 92.5 0
      vertex 20 80 0
    endloop
  endfacet
  facet normal 0 0 -1
    outer loop
      vertex 0 97.5 0
      vertex 20 80 0
      vertex 0 92.5 0
    endloop
  endfacet
  facet normal 0 0 -1
    outer loop
      vertex 20 80 0
      vertex 0 97.5 0
      vertex 0 100 0
    endloop
  endfacet
  facet normal 0 0 -1
    outer loop
      vertex 7.875 10 0
      vertex 5.84805 12.752 0
      vertex 6.31201 13.84 0
    endloop
  endfacet
  facet normal 0 0 -1
    outer loop
      vertex 6.31201 13.84 0
      vertex 5.84805 12.752 0
      vertex 5.84805 13.214 0
    endloop
  endfacet
  facet normal 0 0 -1
    outer loop
      vertex 5 13.8006 0
      vertex 6.31201 13.84 0
      vertex 5.84805 13.214 0
    endloop
  endfacet
  facet normal -0 0 -1
    outer loop
      vertex 6.31201 13.84 0
      vertex 5 13.8006 0
      vertex 6.09418 48.503 0
    endloop
  endfacet
  facet normal -0 0 -1
    outer loop
      vertex 6.09418 48.503 0
      vertex 5 13.8006 0
      vertex 5.71893 48.5266 0
    endloop
  endfacet
  facet normal -0 0 -1
    outer loop
      vertex 5.71893 48.5266 0
      vertex 5 13.8006 0
      vertex 5.36133 48.6428 0
    endloop
  endfacet
  facet normal -0 0 -1
    outer loop
      vertex 5.36133 48.6428 0
      vertex 5 13.8006 0
      vertex 5.04386 48.8442 0
    endloop
  endfacet
  facet normal -0 0 -1
    outer loop
      vertex 5.04386 48.8442 0
      vertex 5 13.8006 0
      vertex 4.78647 49.1183 0
    endloop
  endfacet
  facet normal 0 0 -1
    outer loop
      vertex 5 13.8006 0
      vertex -1.83272 20 0
      vertex 0 30 0
    endloop
  endfacet
  facet normal 0 0 -1
    outer loop
      vertex -5 30 0
      vertex -1.83272 20 0
      vertex -5 20 0
    endloop
  endfacet
  facet normal 0 0 -1
    outer loop
      vertex -1.83272 20 0
      vertex -5 30 0
      vertex 0 30 0
    endloop
  endfacet
  facet normal 0 -1 0
    outer loop
      vertex -6.76777 0 6.76777
      vertex -8.53553 0 8.53553
      vertex -9.6194 0 6.91342
    endloop
  endfacet
  facet normal 0 -1 0
    outer loop
      vertex -8.53553 0 8.53553
      vertex -6.76777 0 6.76777
      vertex -5 0 7.5
    endloop
  endfacet
  facet normal 0 -1 0
    outer loop
      vertex -9.6194 0 6.91342
      vertex -7.5 0 5
      vertex -6.76777 0 6.76777
    endloop
  endfacet
  facet normal 0 -1 0
    outer loop
      vertex -10 0 5
      vertex -7.5 0 5
      vertex -9.6194 0 6.91342
    endloop
  endfacet
  facet normal 0 -1 0
    outer loop
      vertex -9.6194 0 3.08658
      vertex -7.5 0 5
      vertex -10 0 5
    endloop
  endfacet
  facet normal 0 -1 -0
    outer loop
      vertex -7.5 0 5
      vertex -9.6194 0 3.08658
      vertex -6.76777 0 3.23223
    endloop
  endfacet
  facet normal 0 -1 0
    outer loop
      vertex -8.53553 0 1.46447
      vertex -6.76777 0 3.23223
      vertex -9.6194 0 3.08658
    endloop
  endfacet
  facet normal 0 -1 0
    outer loop
      vertex -6.91342 0 0.380602
      vertex -6.76777 0 3.23223
      vertex -8.53553 0 1.46447
    endloop
  endfacet
  facet normal 0 -1 0
    outer loop
      vertex -5 0 7.5
      vertex -5 0 10
      vertex -6.91342 0 9.6194
    endloop
  endfacet
  facet normal 0 -1 0
    outer loop
      vertex -5 0 7.5
      vertex -6.91342 0 9.6194
      vertex -8.53553 0 8.53553
    endloop
  endfacet
  facet normal 0 -1 0
    outer loop
      vertex -5 0 10
      vertex -5 0 7.5
      vertex -3.23223 0 6.76777
    endloop
  endfacet
  facet normal 0 -1 0
    outer loop
      vertex -5 0 10
      vertex -3.23223 0 6.76777
      vertex 92.5 0 10
    endloop
  endfacet
  facet normal 0 -1 0
    outer loop
      vertex -2.5 0 5
      vertex 92.5 0 10
      vertex -3.23223 0 6.76777
    endloop
  endfacet
  facet normal 0 -1 0
    outer loop
      vertex 92.5 0 0
      vertex -2.5 0 5
      vertex -3.23223 0 3.23223
    endloop
  endfacet
  facet normal 0 -1 0
    outer loop
      vertex -5 0 0
      vertex -3.23223 0 3.23223
      vertex -5 0 2.5
    endloop
  endfacet
  facet normal 0 -1 -0
    outer loop
      vertex -6.76777 0 3.23223
      vertex -6.91342 0 0.380602
      vertex -5 0 2.5
    endloop
  endfacet
  facet normal 0 -1 -0
    outer loop
      vertex -5 0 2.5
      vertex -6.91342 0 0.380602
      vertex -5 0 0
    endloop
  endfacet
  facet normal 0 -1 -0
    outer loop
      vertex -3.23223 0 3.23223
      vertex -5 0 0
      vertex 92.5 0 0
    endloop
  endfacet
  facet normal 0 -1 0
    outer loop
      vertex -2.5 0 5
      vertex 92.5 0 0
      vertex 92.5 0 10
    endloop
  endfacet
  facet normal 0 -1 0
    outer loop
      vertex 97.5 0 0
      vertex 100 0 10
      vertex 97.5 0 10
    endloop
  endfacet
  facet normal 0 -1 -0
    outer loop
      vertex 100 0 10
      vertex 97.5 0 0
      vertex 100 0 0
    endloop
  endfacet
  facet normal 1 -0 0
    outer loop
      vertex 20 20 3
      vertex 20 80 0
      vertex 20 80 3
    endloop
  endfacet
  facet normal 1 0 0
    outer loop
      vertex 20 80 0
      vertex 20 20 3
      vertex 20 20 0
    endloop
  endfacet
  facet normal 0 1 -0
    outer loop
      vertex 80 20 0
      vertex 20 20 3
      vertex 80 20 3
    endloop
  endfacet
  facet normal 0 1 0
    outer loop
      vertex 20 20 3
      vertex 80 20 0
      vertex 20 20 0
    endloop
  endfacet
  facet normal 0 0 -1
    outer loop
      vertex 8.369 11.136 1
      vertex 9.97601 13.84 1
      vertex 8.41301 10 1
    endloop
  endfacet
  facet normal -0 0 -1
    outer loop
      vertex 9.97601 13.84 1
      vertex 8.369 11.136 1
      vertex 9.429 13.84 1
    endloop
  endfacet
  facet normal 0 0 -1
    outer loop
      vertex 8.41301 10 1
      vertex 8.14101 10.457 1
      vertex 8.369 11.136 1
    endloop
  endfacet
  facet normal 0 0 -1
    outer loop
      vertex 7.875 10 1
      vertex 8.14101 10.457 1
      vertex 8.41301 10 1
    endloop
  endfacet
  facet normal 0 0 -1
    outer loop
      vertex 7.875 10 1
      vertex 7.91301 11.136 1
      vertex 8.14101 10.457 1
    endloop
  endfacet
  facet normal 0 0 -1
    outer loop
      vertex 6.31201 13.84 1
      vertex 7.91301 11.136 1
      vertex 7.875 10 1
    endloop
  endfacet
  facet normal 0 0 -1
    outer loop
      vertex 7.91301 11.136 1
      vertex 6.31201 13.84 1
      vertex 6.858 13.84 1
    endloop
  endfacet
  facet normal 0 0 -1
    outer loop
      vertex 5 10 1
      vertex 5.96005 10.416 1
      vertex 5.96005 10 1
    endloop
  endfacet
  facet normal -0 0 -1
    outer loop
      vertex 5.96005 10.416 1
      vertex 5 10 1
      vertex 5 10.416 1
    endloop
  endfacet
  facet normal 0 0 -1
    outer loop
      vertex 5 13.3606 1
      vertex 5.84805 13.214 1
      vertex 5.84805 12.752 1
    endloop
  endfacet
  facet normal 0 0 -1
    outer loop
      vertex 5.84805 13.214 1
      vertex 5 13.3606 1
      vertex 5 13.8006 1
    endloop
  endfacet
  facet normal 0 -1 0
    outer loop
      vertex 6.31201 13.84 0
      vertex 6.858 13.84 1
      vertex 6.31201 13.84 1
    endloop
  endfacet
  facet normal 0 -1 -0
    outer loop
      vertex 6.858 13.84 1
      vertex 6.31201 13.84 0
      vertex 6.858 13.84 0
    endloop
  endfacet
  facet normal -0.931603 -0.363478 0
    outer loop
      vertex 7.91301 11.136 0
      vertex 6.858 13.84 1
      vertex 6.858 13.84 0
    endloop
  endfacet
  facet normal -0.931603 -0.363478 0
    outer loop
      vertex 6.858 13.84 1
      vertex 7.91301 11.136 0
      vertex 7.91301 11.136 1
    endloop
  endfacet
  facet normal -0.947984 -0.318317 0
    outer loop
      vertex 8.14101 10.457 0
      vertex 7.91301 11.136 1
      vertex 7.91301 11.136 0
    endloop
  endfacet
  facet normal -0.947984 -0.318317 0
    outer loop
      vertex 7.91301 11.136 1
      vertex 8.14101 10.457 0
      vertex 8.14101 10.457 1
    endloop
  endfacet
  facet normal 0.947984 -0.318317 0
    outer loop
      vertex 8.14101 10.457 1
      vertex 8.369 11.136 0
      vertex 8.369 11.136 1
    endloop
  endfacet
  facet normal 0.947984 -0.318317 0
    outer loop
      vertex 8.369 11.136 0
      vertex 8.14101 10.457 1
      vertex 8.14101 10.457 0
    endloop
  endfacet
  facet normal 0.93102 -0.364969 0
    outer loop
      vertex 8.369 11.136 1
      vertex 9.429 13.84 0
      vertex 9.429 13.84 1
    endloop
  endfacet
  facet normal 0.93102 -0.364969 0
    outer loop
      vertex 9.429 13.84 0
      vertex 8.369 11.136 1
      vertex 8.369 11.136 0
    endloop
  endfacet
  facet normal 0 -1 0
    outer loop
      vertex 9.429 13.84 0
      vertex 9.97601 13.84 1
      vertex 9.429 13.84 1
    endloop
  endfacet
  facet normal 0 -1 -0
    outer loop
      vertex 9.97601 13.84 1
      vertex 9.429 13.84 0
      vertex 9.97601 13.84 0
    endloop
  endfacet
  facet normal -0.926214 0.376999 0
    outer loop
      vertex 8.41301 10 0
      vertex 9.97601 13.84 1
      vertex 9.97601 13.84 0
    endloop
  endfacet
  facet normal -0.926214 0.376999 0
    outer loop
      vertex 9.97601 13.84 1
      vertex 8.41301 10 0
      vertex 8.41301 10 1
    endloop
  endfacet
  facet normal 0 1 -0
    outer loop
      vertex 8.41301 10 0
      vertex 7.875 10 1
      vertex 8.41301 10 1
    endloop
  endfacet
  facet normal 0 1 0
    outer loop
      vertex 7.875 10 1
      vertex 8.41301 10 0
      vertex 7.875 10 0
    endloop
  endfacet
  facet normal 0.926215 0.376996 0
    outer loop
      vertex 7.875 10 1
      vertex 6.31201 13.84 0
      vertex 6.31201 13.84 1
    endloop
  endfacet
  facet normal 0.926215 0.376996 0
    outer loop
      vertex 6.31201 13.84 0
      vertex 7.875 10 1
      vertex 7.875 10 0
    endloop
  endfacet
  facet normal -0.568884 -0.822418 0
    outer loop
      vertex 5 13.8006 0
      vertex 5.84805 13.214 1
      vertex 5 13.8006 1
    endloop
  endfacet
  facet normal -0.568884 -0.822418 -0
    outer loop
      vertex 5.84805 13.214 1
      vertex 5 13.8006 0
      vertex 5.84805 13.214 0
    endloop
  endfacet
  facet normal -1 0 0
    outer loop
      vertex 5.84805 12.752 0
      vertex 5.84805 13.214 1
      vertex 5.84805 13.214 0
    endloop
  endfacet
  facet normal -1 -0 0
    outer loop
      vertex 5.84805 13.214 1
      vertex 5.84805 12.752 0
      vertex 5.84805 12.752 1
    endloop
  endfacet
  facet normal 0.583014 0.812462 -0
    outer loop
      vertex 5.84805 12.752 0
      vertex 5 13.3606 1
      vertex 5.84805 12.752 1
    endloop
  endfacet
  facet normal 0.583014 0.812462 0
    outer loop
      vertex 5 13.3606 1
      vertex 5.84805 12.752 0
      vertex 5 13.3606 0
    endloop
  endfacet
  facet normal 0 -1 0
    outer loop
      vertex 5 10.416 0
      vertex 5.96005 10.416 1
      vertex 5 10.416 1
    endloop
  endfacet
  facet normal 0 -1 -0
    outer loop
      vertex 5.96005 10.416 1
      vertex 5 10.416 0
      vertex 5.96005 10.416 0
    endloop
  endfacet
  facet normal -1 0 0
    outer loop
      vertex 5.96005 10 0
      vertex 5.96005 10.416 1
      vertex 5.96005 10.416 0
    endloop
  endfacet
  facet normal -1 -0 0
    outer loop
      vertex 5.96005 10.416 1
      vertex 5.96005 10 0
      vertex 5.96005 10 1
    endloop
  endfacet
  facet normal 0 1 -0
    outer loop
      vertex 5.96005 10 0
      vertex 5 10 1
      vertex 5.96005 10 1
    endloop
  endfacet
  facet normal 0 1 0
    outer loop
      vertex 5 10 1
      vertex 5.96005 10 0
      vertex 5 10 0
    endloop
  endfacet
  facet normal 0.707107 0.707107 0
    outer loop
      vertex 97 3 10
      vertex 100 0 10
      vertex 97 3 3
    endloop
  endfacet
  facet normal 0.707107 0.707107 0
    outer loop
      vertex 97 3 3
      vertex 80 20 0
      vertex 80 20 3
    endloop
  endfacet
  facet normal 0.707107 0.707107 0
    outer loop
      vertex 97 3 3
      vertex 100 0 0
      vertex 80 20 0
    endloop
  endfacet
  facet normal 0.707107 0.707107 -0
    outer loop
      vertex 100 0 0
      vertex 97 3 3
      vertex 100 0 10
    endloop
  endfacet
  facet normal 0.707107 0.707107 -0
    outer loop
      vertex 3 97 3
      vertex 0 100 10
      vertex 3 97 10
    endloop
  endfacet
  facet normal 0.707107 0.707107 0
    outer loop
      vertex 0 100 10
      vertex 3 97 3
      vertex 0 100 0
    endloop
  endfacet
  facet normal 0.707107 0.707107 -0
    outer loop
      vertex 20 80 0
      vertex 3 97 3
      vertex 20 80 3
    endloop
  endfacet
  facet normal 0.707107 0.707107 0
    outer loop
      vertex 3 97 3
      vertex 20 80 0
      vertex 0 100 0
    endloop
  endfacet
  facet normal -0.992115 -0.125334 0
    outer loop
      vertex 7.5 50 0
      vertex 7.45287 50.373 3
      vertex 7.45287 50.373 0
    endloop
  endfacet
  facet normal -0.992115 -0.125334 0
    outer loop
      vertex 7.45287 50.373 3
      vertex 7.5 50 0
      vertex 7.5 50 3
    endloop
  endfacet
  facet normal 1 -0 0
    outer loop
      vertex 4.51183 49.812 3
      vertex 4.51183 50.188 0
      vertex 4.51183 50.188 3
    endloop
  endfacet
  facet normal 1 0 0
    outer loop
      vertex 4.51183 50.188 0
      vertex 4.51183 49.812 3
      vertex 4.51183 49.812 0
    endloop
  endfacet
  facet normal 0.0627904 -0.998027 0
    outer loop
      vertex 5.71893 51.4734 0
      vertex 6.09418 51.497 3
      vertex 5.71893 51.4734 3
    endloop
  endfacet
  facet normal 0.0627904 -0.998027 0
    outer loop
      vertex 6.09418 51.497 3
      vertex 5.71893 51.4734 0
      vertex 6.09418 51.497 0
    endloop
  endfacet
  facet normal -0.637422 -0.770515 0
    outer loop
      vertex 6.80374 51.2665 0
      vertex 7.09345 51.0268 3
      vertex 6.80374 51.2665 3
    endloop
  endfacet
  facet normal -0.637422 -0.770515 -0
    outer loop
      vertex 7.09345 51.0268 3
      vertex 6.80374 51.2665 0
      vertex 7.09345 51.0268 0
    endloop
  endfacet
  facet normal -0.929776 -0.368125 0
    outer loop
      vertex 7.45287 50.373 0
      vertex 7.31446 50.7226 3
      vertex 7.31446 50.7226 0
    endloop
  endfacet
  facet normal -0.929776 -0.368125 0
    outer loop
      vertex 7.31446 50.7226 3
      vertex 7.45287 50.373 0
      vertex 7.45287 50.373 3
    endloop
  endfacet
  facet normal -0.425776 -0.904829 0
    outer loop
      vertex 6.46352 51.4266 0
      vertex 6.80374 51.2665 3
      vertex 6.46352 51.4266 3
    endloop
  endfacet
  facet normal -0.425776 -0.904829 -0
    outer loop
      vertex 6.80374 51.2665 3
      vertex 6.46352 51.4266 0
      vertex 6.80374 51.2665 0
    endloop
  endfacet
  facet normal 0.728971 -0.684544 0
    outer loop
      vertex 4.78647 50.8817 3
      vertex 5.04386 51.1558 0
      vertex 5.04386 51.1558 3
    endloop
  endfacet
  facet normal 0.728971 -0.684544 0
    outer loop
      vertex 5.04386 51.1558 0
      vertex 4.78647 50.8817 3
      vertex 4.78647 50.8817 0
    endloop
  endfacet
  facet normal 0.535824 -0.84433 0
    outer loop
      vertex 5.04386 51.1558 0
      vertex 5.36133 51.3572 3
      vertex 5.04386 51.1558 3
    endloop
  endfacet
  facet normal 0.535824 -0.84433 0
    outer loop
      vertex 5.36133 51.3572 3
      vertex 5.04386 51.1558 0
      vertex 5.36133 51.3572 0
    endloop
  endfacet
  facet normal -0.809014 0.587789 0
    outer loop
      vertex 7.09345 48.9732 0
      vertex 7.31446 49.2774 3
      vertex 7.31446 49.2774 0
    endloop
  endfacet
  facet normal -0.809014 0.587789 0
    outer loop
      vertex 7.31446 49.2774 3
      vertex 7.09345 48.9732 0
      vertex 7.09345 48.9732 3
    endloop
  endfacet
  facet normal -0.929778 0.368122 0
    outer loop
      vertex 7.31446 49.2774 0
      vertex 7.45287 49.627 3
      vertex 7.45287 49.627 0
    endloop
  endfacet
  facet normal -0.929778 0.368122 0
    outer loop
      vertex 7.45287 49.627 3
      vertex 7.31446 49.2774 0
      vertex 7.31446 49.2774 3
    endloop
  endfacet
  facet normal -0.809018 -0.587784 0
    outer loop
      vertex 7.31446 50.7226 0
      vertex 7.09345 51.0268 3
      vertex 7.09345 51.0268 0
    endloop
  endfacet
  facet normal -0.809018 -0.587784 0
    outer loop
      vertex 7.09345 51.0268 3
      vertex 7.31446 50.7226 0
      vertex 7.31446 50.7226 3
    endloop
  endfacet
  facet normal -0.187387 -0.982286 0
    outer loop
      vertex 6.09418 51.497 0
      vertex 6.46352 51.4266 3
      vertex 6.09418 51.497 3
    endloop
  endfacet
  facet normal -0.187387 -0.982286 -0
    outer loop
      vertex 6.46352 51.4266 3
      vertex 6.09418 51.497 0
      vertex 6.46352 51.4266 0
    endloop
  endfacet
  facet normal 0.876307 -0.481754 0
    outer loop
      vertex 4.60534 50.5522 3
      vertex 4.78647 50.8817 0
      vertex 4.78647 50.8817 3
    endloop
  endfacet
  facet normal 0.876307 -0.481754 0
    outer loop
      vertex 4.78647 50.8817 0
      vertex 4.60534 50.5522 3
      vertex 4.60534 50.5522 0
    endloop
  endfacet
  facet normal 0.968583 -0.248692 0
    outer loop
      vertex 4.51183 50.188 3
      vertex 4.60534 50.5522 0
      vertex 4.60534 50.5522 3
    endloop
  endfacet
  facet normal 0.968583 -0.248692 0
    outer loop
      vertex 4.60534 50.5522 0
      vertex 4.51183 50.188 3
      vertex 4.51183 50.188 0
    endloop
  endfacet
  facet normal 0.309021 -0.951055 0
    outer loop
      vertex 5.36133 51.3572 0
      vertex 5.71893 51.4734 3
      vertex 5.36133 51.3572 3
    endloop
  endfacet
  facet normal 0.309021 -0.951055 0
    outer loop
      vertex 5.71893 51.4734 3
      vertex 5.36133 51.3572 0
      vertex 5.71893 51.4734 0
    endloop
  endfacet
  facet normal -0.187377 0.982288 0
    outer loop
      vertex 6.46352 48.5734 0
      vertex 6.09418 48.503 3
      vertex 6.46352 48.5734 3
    endloop
  endfacet
  facet normal -0.187377 0.982288 0
    outer loop
      vertex 6.09418 48.503 3
      vertex 6.46352 48.5734 0
      vertex 6.09418 48.503 0
    endloop
  endfacet
  facet normal -0.637422 0.770515 0
    outer loop
      vertex 7.09345 48.9732 0
      vertex 6.80374 48.7335 3
      vertex 7.09345 48.9732 3
    endloop
  endfacet
  facet normal -0.637422 0.770515 0
    outer loop
      vertex 6.80374 48.7335 3
      vertex 7.09345 48.9732 0
      vertex 6.80374 48.7335 0
    endloop
  endfacet
  facet normal 0.535824 0.84433 -0
    outer loop
      vertex 5.36133 48.6428 0
      vertex 5.04386 48.8442 3
      vertex 5.36133 48.6428 3
    endloop
  endfacet
  facet normal 0.535824 0.84433 0
    outer loop
      vertex 5.04386 48.8442 3
      vertex 5.36133 48.6428 0
      vertex 5.04386 48.8442 0
    endloop
  endfacet
  facet normal 0.0627904 0.998027 -0
    outer loop
      vertex 6.09418 48.503 0
      vertex 5.71893 48.5266 3
      vertex 6.09418 48.503 3
    endloop
  endfacet
  facet normal 0.0627904 0.998027 0
    outer loop
      vertex 5.71893 48.5266 3
      vertex 6.09418 48.503 0
      vertex 5.71893 48.5266 0
    endloop
  endfacet
  facet normal 0.728967 0.684549 0
    outer loop
      vertex 5.04386 48.8442 3
      vertex 4.78647 49.1183 0
      vertex 4.78647 49.1183 3
    endloop
  endfacet
  facet normal 0.728967 0.684549 0
    outer loop
      vertex 4.78647 49.1183 0
      vertex 5.04386 48.8442 3
      vertex 5.04386 48.8442 0
    endloop
  endfacet
  facet normal 0.968583 0.248692 0
    outer loop
      vertex 4.60534 49.4478 3
      vertex 4.51183 49.812 0
      vertex 4.51183 49.812 3
    endloop
  endfacet
  facet normal 0.968583 0.248692 0
    outer loop
      vertex 4.51183 49.812 0
      vertex 4.60534 49.4478 3
      vertex 4.60534 49.4478 0
    endloop
  endfacet
  facet normal -0.992115 0.125334 0
    outer loop
      vertex 7.45287 49.627 0
      vertex 7.5 50 3
      vertex 7.5 50 0
    endloop
  endfacet
  facet normal -0.992115 0.125334 0
    outer loop
      vertex 7.5 50 3
      vertex 7.45287 49.627 0
      vertex 7.45287 49.627 3
    endloop
  endfacet
  facet normal -0.425784 0.904825 0
    outer loop
      vertex 6.80374 48.7335 0
      vertex 6.46352 48.5734 3
      vertex 6.80374 48.7335 3
    endloop
  endfacet
  facet normal -0.425784 0.904825 0
    outer loop
      vertex 6.46352 48.5734 3
      vertex 6.80374 48.7335 0
      vertex 6.46352 48.5734 0
    endloop
  endfacet
  facet normal 0.309021 0.951055 -0
    outer loop
      vertex 5.71893 48.5266 0
      vertex 5.36133 48.6428 3
      vertex 5.71893 48.5266 3
    endloop
  endfacet
  facet normal 0.309021 0.951055 0
    outer loop
      vertex 5.36133 48.6428 3
      vertex 5.71893 48.5266 0
      vertex 5.36133 48.6428 0
    endloop
  endfacet
  facet normal 0.876309 0.481749 0
    outer loop
      vertex 4.78647 49.1183 3
      vertex 4.60534 49.4478 0
      vertex 4.60534 49.4478 3
    endloop
  endfacet
  facet normal 0.876309 0.481749 0
    outer loop
      vertex 4.60534 49.4478 0
      vertex 4.78647 49.1183 3
      vertex 4.78647 49.1183 0
    endloop
  endfacet
  facet normal 1 -0 0
    outer loop
      vertex 5 29.2843 10
      vertex 5 30 3
      vertex 5 30 10
    endloop
  endfacet
  facet normal 1 0 0
    outer loop
      vertex 5 30 3
      vertex 5 29.2843 10
      vertex 5 29.2843 3
    endloop
  endfacet
  facet normal 1 -0 0
    outer loop
      vertex 5 10 1
      vertex 5 10.416 0
      vertex 5 10.416 1
    endloop
  endfacet
  facet normal 1 0 0
    outer loop
      vertex 5 10.416 0
      vertex 5 10 1
      vertex 5 10 0
    endloop
  endfacet
  facet normal 1 -0 0
    outer loop
      vertex 5 13.3606 1
      vertex 5 13.8006 0
      vertex 5 13.8006 1
    endloop
  endfacet
  facet normal 1 0 0
    outer loop
      vertex 5 13.8006 0
      vertex 5 13.3606 1
      vertex 5 13.3606 0
    endloop
  endfacet
  facet normal 0 1 -0
    outer loop
      vertex -3.23223 30 6.76777
      vertex -5 30 10
      vertex 0 30 10
    endloop
  endfacet
  facet normal 0 1 0
    outer loop
      vertex -5 30 10
      vertex -5 30 7.5
      vertex -6.91342 30 9.6194
    endloop
  endfacet
  facet normal 0 1 -0
    outer loop
      vertex -6.76777 30 6.76777
      vertex -6.91342 30 9.6194
      vertex -5 30 7.5
    endloop
  endfacet
  facet normal 0 1 0
    outer loop
      vertex -5 30 10
      vertex -3.23223 30 6.76777
      vertex -5 30 7.5
    endloop
  endfacet
  facet normal 0 1 0
    outer loop
      vertex 0 30 10
      vertex -2.5 30 5
      vertex -3.23223 30 6.76777
    endloop
  endfacet
  facet normal 0 1 -0
    outer loop
      vertex 0 30 0
      vertex -2.5 30 5
      vertex 0 30 10
    endloop
  endfacet
  facet normal 0 1 0
    outer loop
      vertex -6.76777 30 3.23223
      vertex -6.91342 30 0.380602
      vertex -8.53553 30 1.46447
    endloop
  endfacet
  facet normal 0 1 0
    outer loop
      vertex -5 30 0
      vertex -5 30 2.5
      vertex -3.23223 30 3.23223
    endloop
  endfacet
  facet normal 0 1 0
    outer loop
      vertex -2.5 30 5
      vertex 0 30 0
      vertex -3.23223 30 3.23223
    endloop
  endfacet
  facet normal 0 1 0
    outer loop
      vertex -5 30 0
      vertex -3.23223 30 3.23223
      vertex 0 30 0
    endloop
  endfacet
  facet normal 0 1 0
    outer loop
      vertex -5 30 2.5
      vertex -5 30 0
      vertex -6.91342 30 0.380602
    endloop
  endfacet
  facet normal 0 1 0
    outer loop
      vertex -6.91342 30 9.6194
      vertex -6.76777 30 6.76777
      vertex -8.53553 30 8.53553
    endloop
  endfacet
  facet normal 0 1 0
    outer loop
      vertex -8.53553 30 8.53553
      vertex -6.76777 30 6.76777
      vertex -9.6194 30 6.91342
    endloop
  endfacet
  facet normal 0 1 -0
    outer loop
      vertex -7.5 30 5
      vertex -9.6194 30 6.91342
      vertex -6.76777 30 6.76777
    endloop
  endfacet
  facet normal 0 1 0
    outer loop
      vertex -7.5 30 5
      vertex -10 30 5
      vertex -9.6194 30 6.91342
    endloop
  endfacet
  facet normal 0 1 0
    outer loop
      vertex -9.6194 30 3.08658
      vertex -7.5 30 5
      vertex -6.76777 30 3.23223
    endloop
  endfacet
  facet normal 0 1 0
    outer loop
      vertex -7.5 30 5
      vertex -9.6194 30 3.08658
      vertex -10 30 5
    endloop
  endfacet
  facet normal 0 1 0
    outer loop
      vertex -6.91342 30 0.380602
      vertex -6.76777 30 3.23223
      vertex -5 30 2.5
    endloop
  endfacet
  facet normal 0 1 0
    outer loop
      vertex -6.76777 30 3.23223
      vertex -8.53553 30 1.46447
      vertex -9.6194 30 3.08658
    endloop
  endfacet
  facet normal 0 1 -0
    outer loop
      vertex 5 30 3
      vertex 4.28427 30 10
      vertex 5 30 10
    endloop
  endfacet
  facet normal 0 1 0
    outer loop
      vertex 4.28427 30 10
      vertex 5 30 3
      vertex 4.28427 30 3
    endloop
  endfacet
  facet normal -0.19509 0 -0.980785
    outer loop
      vertex -5 0 0
      vertex -5.88344 10 0.175726
      vertex -5 10 0
    endloop
  endfacet
  facet normal -0.19509 -1.76716e-09 -0.980785
    outer loop
      vertex -6.91342 0 0.380602
      vertex -5.88344 10 0.175726
      vertex -5 0 0
    endloop
  endfacet
  facet normal -0.19509 0 -0.980785
    outer loop
      vertex -5.88344 10 0.175726
      vertex -6.91342 0 0.380602
      vertex -6.91342 10 0.380602
    endloop
  endfacet
  facet normal -0.19509 0 -0.980785
    outer loop
      vertex -6.91342 20 0.380602
      vertex -5 30 0
      vertex -5 20 0
    endloop
  endfacet
  facet normal -0.19509 0 -0.980785
    outer loop
      vertex -5 30 0
      vertex -6.91342 20 0.380602
      vertex -6.91342 30 0.380602
    endloop
  endfacet
  facet normal -0.980785 -9.30262e-09 0.19509
    outer loop
      vertex -10 30 5
      vertex -10 20 5
      vertex -9.87313 20 5.63781
    endloop
  endfacet
  facet normal -0.980785 -9.30265e-09 0.195091
    outer loop
      vertex -10 0 5
      vertex -9.74626 10 6.27561
      vertex -10 10 5
    endloop
  endfacet
  facet normal -0.980785 2.18757e-08 0.195091
    outer loop
      vertex -9.74626 10 6.27561
      vertex -10 0 5
      vertex -9.6194 0 6.91342
    endloop
  endfacet
  facet normal -0.195091 0 0.980785
    outer loop
      vertex -6.91342 30 9.6194
      vertex -5 20 10
      vertex -5 30 10
    endloop
  endfacet
  facet normal -0.195091 0 0.980785
    outer loop
      vertex -5 20 10
      vertex -6.91342 30 9.6194
      vertex -6.91342 20 9.6194
    endloop
  endfacet
  facet normal -0.195091 0 0.980785
    outer loop
      vertex -5.93089 10 9.81483
      vertex -5 0 10
      vertex -5 10 10
    endloop
  endfacet
  facet normal -0.195091 5.06645e-08 0.980785
    outer loop
      vertex -6.91342 0 9.6194
      vertex -5.93089 10 9.81483
      vertex -6.66439 10 9.66893
    endloop
  endfacet
  facet normal -0.195089 0 0.980786
    outer loop
      vertex -6.91342 0 9.6194
      vertex -6.66439 10 9.66893
      vertex -6.91342 10 9.6194
    endloop
  endfacet
  facet normal -0.195091 2.47495e-08 0.980785
    outer loop
      vertex -5.93089 10 9.81483
      vertex -6.91342 0 9.6194
      vertex -5 0 10
    endloop
  endfacet
  facet normal -0.980785 2.80774e-08 0.195091
    outer loop
      vertex -9.87313 20 5.63781
      vertex -9.6194 30 6.91342
      vertex -10 30 5
    endloop
  endfacet
  facet normal -0.980785 0 0.195091
    outer loop
      vertex -9.6194 30 6.91342
      vertex -9.87313 20 5.63781
      vertex -9.6194 20 6.91342
    endloop
  endfacet
  facet normal -0.980785 0 0.19509
    outer loop
      vertex -9.6194 10 6.91342
      vertex -9.74626 10 6.27561
      vertex -9.6194 0 6.91342
    endloop
  endfacet
  facet normal -0.55557 0 0.83147
    outer loop
      vertex -8.53553 30 8.53553
      vertex -6.91342 20 9.6194
      vertex -6.91342 30 9.6194
    endloop
  endfacet
  facet normal -0.55557 0 0.83147
    outer loop
      vertex -6.91342 20 9.6194
      vertex -8.53553 30 8.53553
      vertex -8.53553 20 8.53553
    endloop
  endfacet
  facet normal -0.55557 0 0.83147
    outer loop
      vertex -8.28169 10 8.70515
      vertex -6.91342 0 9.6194
      vertex -6.91342 10 9.6194
    endloop
  endfacet
  facet normal -0.55557 0 0.83147
    outer loop
      vertex -8.53553 0 8.53553
      vertex -8.28169 10 8.70515
      vertex -8.53553 10 8.53553
    endloop
  endfacet
  facet normal -0.55557 2.0974e-10 0.83147
    outer loop
      vertex -8.28169 10 8.70515
      vertex -8.53553 0 8.53553
      vertex -6.91342 0 9.6194
    endloop
  endfacet
  facet normal -0.55557 0 -0.83147
    outer loop
      vertex -6.91342 0 0.380602
      vertex -8.08384 10 1.16265
      vertex -6.91342 10 0.380602
    endloop
  endfacet
  facet normal -0.55557 3.71243e-09 -0.83147
    outer loop
      vertex -8.53553 0 1.46447
      vertex -8.08384 10 1.16265
      vertex -6.91342 0 0.380602
    endloop
  endfacet
  facet normal -0.55557 -4.28427e-09 -0.83147
    outer loop
      vertex -8.08384 10 1.16265
      vertex -8.53553 0 1.46447
      vertex -8.28169 10 1.29485
    endloop
  endfacet
  facet normal -0.55557 -3.06572e-09 -0.83147
    outer loop
      vertex -8.28169 10 1.29485
      vertex -8.53553 0 1.46447
      vertex -8.5292 10 1.46023
    endloop
  endfacet
  facet normal -0.555573 0 -0.831468
    outer loop
      vertex -8.5292 10 1.46023
      vertex -8.53553 0 1.46447
      vertex -8.53553 10 1.46447
    endloop
  endfacet
  facet normal -0.55557 0 -0.83147
    outer loop
      vertex -8.53553 20 1.46447
      vertex -6.91342 30 0.380602
      vertex -6.91342 20 0.380602
    endloop
  endfacet
  facet normal -0.55557 0 -0.83147
    outer loop
      vertex -6.91342 30 0.380602
      vertex -8.53553 20 1.46447
      vertex -8.53553 30 1.46447
    endloop
  endfacet
  facet normal -0.980785 0 -0.195091
    outer loop
      vertex -9.6194 0 3.08658
      vertex -9.87313 10 4.36219
      vertex -9.6194 10 3.08658
    endloop
  endfacet
  facet normal -0.980785 -2.80774e-08 -0.195091
    outer loop
      vertex -9.87313 10 4.36219
      vertex -9.6194 0 3.08658
      vertex -10 0 5
    endloop
  endfacet
  facet normal -0.980785 0 -0.19509
    outer loop
      vertex -9.6194 20 3.08658
      vertex -9.74626 20 3.72439
      vertex -9.6194 30 3.08658
    endloop
  endfacet
  facet normal -0.980785 -2.6527e-08 -0.195091
    outer loop
      vertex -9.74626 20 3.72439
      vertex -10 30 5
      vertex -9.6194 30 3.08658
    endloop
  endfacet
  facet normal -0.980785 9.30265e-09 -0.195091
    outer loop
      vertex -10 30 5
      vertex -9.74626 20 3.72439
      vertex -10 20 5
    endloop
  endfacet
  facet normal -0.980785 4.78854e-08 -0.195089
    outer loop
      vertex -10 0 5
      vertex -9.99162 10 4.95785
      vertex -9.87313 10 4.36219
    endloop
  endfacet
  facet normal -0.980784 9.30301e-09 -0.195098
    outer loop
      vertex -9.99162 10 4.95785
      vertex -10 0 5
      vertex -10 10 5
    endloop
  endfacet
  facet normal -0.831469 0 0.555571
    outer loop
      vertex -9.6194 0 6.91342
      vertex -9.47519 10 7.12924
      vertex -9.6194 10 6.91342
    endloop
  endfacet
  facet normal -0.83147 2.02757e-08 0.55557
    outer loop
      vertex -8.53553 0 8.53553
      vertex -9.47519 10 7.12924
      vertex -9.6194 0 6.91342
    endloop
  endfacet
  facet normal -0.83147 0 0.55557
    outer loop
      vertex -9.47519 10 7.12924
      vertex -8.53553 0 8.53553
      vertex -8.53553 10 8.53553
    endloop
  endfacet
  facet normal -0.83147 0 0.55557
    outer loop
      vertex -9.6194 20 6.91342
      vertex -8.53553 30 8.53553
      vertex -9.6194 30 6.91342
    endloop
  endfacet
  facet normal -0.83147 0 0.55557
    outer loop
      vertex -8.53553 30 8.53553
      vertex -9.6194 20 6.91342
      vertex -8.53553 20 8.53553
    endloop
  endfacet
  facet normal -0.83147 0 -0.55557
    outer loop
      vertex -8.53553 20 1.46447
      vertex -9.6194 30 3.08658
      vertex -8.53553 30 1.46447
    endloop
  endfacet
  facet normal -0.83147 -0 -0.55557
    outer loop
      vertex -9.6194 30 3.08658
      vertex -8.53553 20 1.46447
      vertex -9.6194 20 3.08658
    endloop
  endfacet
  facet normal -0.83147 -0 -0.55557
    outer loop
      vertex -8.53553 10 1.46447
      vertex -8.53553 0 1.46447
      vertex -9.0637 10 2.25492
    endloop
  endfacet
  facet normal -0.83147 1.04836e-09 -0.55557
    outer loop
      vertex -9.6194 0 3.08658
      vertex -9.0637 10 2.25492
      vertex -8.53553 0 1.46447
    endloop
  endfacet
  facet normal -0.83147 0 -0.55557
    outer loop
      vertex -9.0637 10 2.25492
      vertex -9.6194 0 3.08658
      vertex -9.6194 10 3.08658
    endloop
  endfacet
  facet normal 0 1 0
    outer loop
      vertex -0.93631 10 9.41434
      vertex -2.50729 10 10
      vertex -1.83272 10 10
    endloop
  endfacet
  facet normal -4.02696e-08 1 -1.0802e-07
    outer loop
      vertex -2.50729 10 10
      vertex -0.93631 10 9.41434
      vertex -0.93631 10 0.585656
    endloop
  endfacet
  facet normal 0 1 0
    outer loop
      vertex -0.93631 10 0.585656
      vertex -5 10 2.5
      vertex -3.23223 10 3.23223
    endloop
  endfacet
  facet normal 0 1 0
    outer loop
      vertex -0.93631 10 0.585656
      vertex -3.23223 10 3.23223
      vertex -2.85778 10 4.13623
    endloop
  endfacet
  facet normal 0 1 0
    outer loop
      vertex -5 10 2.5
      vertex -0.93631 10 0.585656
      vertex -5.88344 10 0.175726
    endloop
  endfacet
  facet normal 0 1 0
    outer loop
      vertex -5 10 2.5
      vertex -5.88344 10 0.175726
      vertex -6.91342 10 0.380602
    endloop
  endfacet
  facet normal 0 1 0
    outer loop
      vertex -5 10 2.5
      vertex -6.91342 10 0.380602
      vertex -8.08384 10 1.16265
    endloop
  endfacet
  facet normal 0 1 0
    outer loop
      vertex -6.76777 10 3.23223
      vertex -8.08384 10 1.16265
      vertex -7.45972 10 4.90277
    endloop
  endfacet
  facet normal 0 1 0
    outer loop
      vertex -8.08384 10 1.16265
      vertex -6.76777 10 3.23223
      vertex -5 10 2.5
    endloop
  endfacet
  facet normal 0 1 0
    outer loop
      vertex -5.93089 10 9.81483
      vertex -5 10 7.5
      vertex -6.66439 10 9.66893
    endloop
  endfacet
  facet normal -0 1 -0
    outer loop
      vertex -5 10 7.5
      vertex -5.93089 10 9.81483
      vertex -4.58518 10 7.32818
    endloop
  endfacet
  facet normal 0 1 0
    outer loop
      vertex -6.76777 10 6.76777
      vertex -6.66439 10 9.66893
      vertex -5 10 7.5
    endloop
  endfacet
  facet normal -1.63647e-06 1 5.83114e-08
    outer loop
      vertex -6.66439 10 9.66893
      vertex -6.76777 10 6.76777
      vertex -7.40538 10 5.22843
    endloop
  endfacet
  facet normal 4.41862e-08 1 -2.22141e-07
    outer loop
      vertex -7.40538 10 5.22843
      vertex -6.91342 10 9.6194
      vertex -6.66439 10 9.66893
    endloop
  endfacet
  facet normal 1.56865e-07 1 -2.34765e-07
    outer loop
      vertex -6.91342 10 9.6194
      vertex -7.40538 10 5.22843
      vertex -8.28169 10 8.70515
    endloop
  endfacet
  facet normal 4.11704e-07 1 -1.70533e-07
    outer loop
      vertex -7.5 10 5
      vertex -8.28169 10 8.70515
      vertex -7.40538 10 5.22843
    endloop
  endfacet
  facet normal 6.10009e-07 1 -1.28696e-07
    outer loop
      vertex -7.5 10 5
      vertex -8.28169 10 1.29485
      vertex -8.28169 10 8.70515
    endloop
  endfacet
  facet normal 0 1 0
    outer loop
      vertex -7.45972 10 4.90277
      vertex -8.28169 10 1.29485
      vertex -7.5 10 5
    endloop
  endfacet
  facet normal -0 1 0
    outer loop
      vertex -8.28169 10 1.29485
      vertex -7.45972 10 4.90277
      vertex -8.08384 10 1.16265
    endloop
  endfacet
  facet normal 0 1 -0
    outer loop
      vertex 0 10 6.19666
      vertex -0.93631 10 9.41434
      vertex 0 10 8.21137
    endloop
  endfacet
  facet normal -3.71217e-07 1 -1.0802e-07
    outer loop
      vertex -0.93631 10 9.41434
      vertex 0 10 6.19666
      vertex -0.93631 10 0.585656
    endloop
  endfacet
  facet normal 2.44361e-06 1 4.86062e-07
    outer loop
      vertex -9.0637 10 2.25492
      vertex -9.87313 10 4.36219
      vertex -9.99162 10 4.95785
    endloop
  endfacet
  facet normal 2.44363e-06 1 4.8607e-07
    outer loop
      vertex -9.87313 10 4.36219
      vertex -9.0637 10 2.25492
      vertex -9.6194 10 3.08658
    endloop
  endfacet
  facet normal -0.789141 0 0.614212
    outer loop
      vertex -0.93631 20 0.585656
      vertex 0 10 1.78863
      vertex 0 20 1.78863
    endloop
  endfacet
  facet normal -0.789141 0 0.614212
    outer loop
      vertex 0 10 1.78863
      vertex -0.93631 20 0.585656
      vertex -0.93631 10 0.585656
    endloop
  endfacet
  facet normal -1.01855e-06 1 0
    outer loop
      vertex 0 10 2.31581
      vertex 0 10 1.78863
      vertex -0.93631 10 0.585656
    endloop
  endfacet
  facet normal 0 1 0
    outer loop
      vertex -5 10 0
      vertex -0.93631 10 0.585656
      vertex -1.83272 10 0
    endloop
  endfacet
  facet normal 0 1 0
    outer loop
      vertex -0.93631 10 0.585656
      vertex -5 10 0
      vertex -5.88344 10 0.175726
    endloop
  endfacet
  facet normal -1.01855e-06 1 0
    outer loop
      vertex 0 10 6.19666
      vertex 0 10 3.31304
      vertex -0.93631 10 0.585656
    endloop
  endfacet
  facet normal -1.01855e-06 1 0
    outer loop
      vertex 0 10 3.31304
      vertex 0 10 2.31581
      vertex -0.93631 10 0.585656
    endloop
  endfacet
  facet normal -0.546948 0 -0.837166
    outer loop
      vertex -1.83272 10 10
      vertex -0.93631 20 9.41434
      vertex -0.93631 10 9.41434
    endloop
  endfacet
  facet normal -0.546948 0 -0.837166
    outer loop
      vertex -0.93631 20 9.41434
      vertex -1.83272 10 10
      vertex -1.83272 20 10
    endloop
  endfacet
  facet normal 0 1 -0
    outer loop
      vertex -4.58518 10 7.32818
      vertex -5 10 10
      vertex -4.16826 10 10
    endloop
  endfacet
  facet normal 0 1 0
    outer loop
      vertex -5 10 10
      vertex -4.58518 10 7.32818
      vertex -5.93089 10 9.81483
    endloop
  endfacet
  facet normal 0 1 0
    outer loop
      vertex -4.16826 10 10
      vertex -3.23223 10 6.76777
      vertex -4.58518 10 7.32818
    endloop
  endfacet
  facet normal 4.32893e-06 1 1.25362e-06
    outer loop
      vertex -4.16826 10 10
      vertex -2.5 10 5
      vertex -3.23223 10 6.76777
    endloop
  endfacet
  facet normal 0 1 0
    outer loop
      vertex -2.5 10 5
      vertex -0.93631 10 0.585656
      vertex -2.85778 10 4.13623
    endloop
  endfacet
  facet normal -9.269e-06 1 -3.28335e-06
    outer loop
      vertex -0.93631 10 0.585656
      vertex -2.5 10 5
      vertex -4.16826 10 10
    endloop
  endfacet
  facet normal 0 1 -1.013e-07
    outer loop
      vertex -2.50729 10 10
      vertex -0.93631 10 0.585656
      vertex -4.16826 10 10
    endloop
  endfacet
  facet normal -0.789141 0 -0.614213
    outer loop
      vertex 0 10 8.21137
      vertex -0.93631 20 9.41434
      vertex 0 20 8.21137
    endloop
  endfacet
  facet normal -0.789141 -0 -0.614213
    outer loop
      vertex -0.93631 20 9.41434
      vertex 0 10 8.21137
      vertex -0.93631 10 9.41434
    endloop
  endfacet
  facet normal 0 -1 0
    outer loop
      vertex -5 20 7.5
      vertex -5 20 10
      vertex -6.91342 20 9.6194
    endloop
  endfacet
  facet normal 0 -1 0
    outer loop
      vertex -3.23223 20 6.76777
      vertex -5 20 10
      vertex -5 20 7.5
    endloop
  endfacet
  facet normal 0 -1 0
    outer loop
      vertex -6.76777 20 6.76777
      vertex -6.91342 20 9.6194
      vertex -8.53553 20 8.53553
    endloop
  endfacet
  facet normal 0 -1 0
    outer loop
      vertex -5 20 10
      vertex -3.23223 20 6.76777
      vertex -1.83272 20 10
    endloop
  endfacet
  facet normal 0 -1 -0
    outer loop
      vertex -1.83272 20 10
      vertex -3.23223 20 6.76777
      vertex -0.93631 20 9.41434
    endloop
  endfacet
  facet normal 0 -1 0
    outer loop
      vertex -6.76777 20 6.76777
      vertex -8.53553 20 8.53553
      vertex -9.6194 20 6.91342
    endloop
  endfacet
  facet normal 0 -1 0
    outer loop
      vertex -6.91342 20 9.6194
      vertex -6.76777 20 6.76777
      vertex -5 20 7.5
    endloop
  endfacet
  facet normal 0 -1 0
    outer loop
      vertex -7.5 20 5
      vertex -9.6194 20 6.91342
      vertex -9.87313 20 5.63781
    endloop
  endfacet
  facet normal 0 -1 0
    outer loop
      vertex -9.6194 20 6.91342
      vertex -7.5 20 5
      vertex -6.76777 20 6.76777
    endloop
  endfacet
  facet normal 0 -1 0
    outer loop
      vertex -10 20 5
      vertex -7.5 20 5
      vertex -9.87313 20 5.63781
    endloop
  endfacet
  facet normal 0 -1 0
    outer loop
      vertex -9.74626 20 3.72439
      vertex -7.5 20 5
      vertex -10 20 5
    endloop
  endfacet
  facet normal 0 -1 0
    outer loop
      vertex -9.6194 20 3.08658
      vertex -7.5 20 5
      vertex -9.74626 20 3.72439
    endloop
  endfacet
  facet normal 0 -1 -0
    outer loop
      vertex -7.5 20 5
      vertex -9.6194 20 3.08658
      vertex -6.76777 20 3.23223
    endloop
  endfacet
  facet normal 0 -1 0
    outer loop
      vertex -8.53553 20 1.46447
      vertex -6.76777 20 3.23223
      vertex -9.6194 20 3.08658
    endloop
  endfacet
  facet normal 0 -1 0
    outer loop
      vertex -6.91342 20 0.380602
      vertex -6.76777 20 3.23223
      vertex -8.53553 20 1.46447
    endloop
  endfacet
  facet normal 0 -1 -0
    outer loop
      vertex -6.76777 20 3.23223
      vertex -6.91342 20 0.380602
      vertex -5 20 2.5
    endloop
  endfacet
  facet normal 0 -1 0
    outer loop
      vertex -1.83272 20 0
      vertex -5 20 2.5
      vertex -5 20 0
    endloop
  endfacet
  facet normal 0 -1 -0
    outer loop
      vertex -5 20 2.5
      vertex -6.91342 20 0.380602
      vertex -5 20 0
    endloop
  endfacet
  facet normal 0 -1 0
    outer loop
      vertex -5 20 2.5
      vertex -0.93631 20 0.585656
      vertex 0 20 1.78863
    endloop
  endfacet
  facet normal 0 -1 0
    outer loop
      vertex -5 20 2.5
      vertex -1.83272 20 0
      vertex -0.93631 20 0.585656
    endloop
  endfacet
  facet normal 0 -1 -0
    outer loop
      vertex -0.93631 20 9.41434
      vertex -3.23223 20 6.76777
      vertex 0 20 8.21137
    endloop
  endfacet
  facet normal 0 -1 0
    outer loop
      vertex -2.5 20 5
      vertex 0 20 8.21137
      vertex -3.23223 20 6.76777
    endloop
  endfacet
  facet normal 0 -1 0
    outer loop
      vertex 0 20 1.78863
      vertex -2.5 20 5
      vertex -3.23223 20 3.23223
    endloop
  endfacet
  facet normal 0 -1 0
    outer loop
      vertex -2.5 20 5
      vertex 0 20 1.78863
      vertex 0 20 8.21137
    endloop
  endfacet
  facet normal 0 -1 0
    outer loop
      vertex 0 20 1.78863
      vertex -3.23223 20 3.23223
      vertex -5 20 2.5
    endloop
  endfacet
  facet normal 0 1 0
    outer loop
      vertex -8.28169 10 8.70515
      vertex -9.47519 10 7.12924
      vertex -8.53553 10 8.53553
    endloop
  endfacet
  facet normal 1.69931e-07 1 -1.28696e-07
    outer loop
      vertex -8.28169 10 1.29485
      vertex -9.47519 10 7.12924
      vertex -8.28169 10 8.70515
    endloop
  endfacet
  facet normal -1.26511e-07 1 -1.89337e-07
    outer loop
      vertex -9.47519 10 7.12924
      vertex -8.28169 10 1.29485
      vertex -8.5292 10 1.46023
    endloop
  endfacet
  facet normal 0 1 0
    outer loop
      vertex -9.47519 10 7.12924
      vertex -9.74626 10 6.27561
      vertex -9.6194 10 6.91342
    endloop
  endfacet
  facet normal 4.86725e-07 1 -1.54564e-07
    outer loop
      vertex -9.0637 10 2.25492
      vertex -9.74626 10 6.27561
      vertex -9.47519 10 7.12924
    endloop
  endfacet
  facet normal 0 1 0
    outer loop
      vertex -9.74626 10 6.27561
      vertex -9.99162 10 4.95785
      vertex -10 10 5
    endloop
  endfacet
  facet normal 6.66362e-07 1 -1.24068e-07
    outer loop
      vertex -9.74626 10 6.27561
      vertex -9.0637 10 2.25492
      vertex -9.99162 10 4.95785
    endloop
  endfacet
  facet normal -3.32644e-07 1 -2.23734e-07
    outer loop
      vertex -8.5292 10 1.46023
      vertex -9.0637 10 2.25492
      vertex -9.47519 10 7.12924
    endloop
  endfacet
  facet normal 0 1 0
    outer loop
      vertex -9.0637 10 2.25492
      vertex -8.5292 10 1.46023
      vertex -8.53553 10 1.46447
    endloop
  endfacet
  facet normal -0.546948 0 0.837167
    outer loop
      vertex -1.83272 20 0
      vertex -0.93631 10 0.585656
      vertex -0.93631 20 0.585656
    endloop
  endfacet
  facet normal -0.546948 0 0.837167
    outer loop
      vertex -0.93631 10 0.585656
      vertex -1.83272 20 0
      vertex -1.83272 10 0
    endloop
  endfacet
  facet normal -0.92388 0 0.382683
    outer loop
      vertex -3.23223 0 3.23223
      vertex -2.85778 10 4.13623
      vertex -3.23223 10 3.23223
    endloop
  endfacet
  facet normal -0.92388 7.73937e-09 0.382683
    outer loop
      vertex -2.5 0 5
      vertex -2.85778 10 4.13623
      vertex -3.23223 0 3.23223
    endloop
  endfacet
  facet normal -0.92388 0 0.382683
    outer loop
      vertex -2.85778 10 4.13623
      vertex -2.5 0 5
      vertex -2.5 10 5
    endloop
  endfacet
  facet normal -0.92388 0 0.382683
    outer loop
      vertex -3.23223 20 3.23223
      vertex -2.5 30 5
      vertex -3.23223 30 3.23223
    endloop
  endfacet
  facet normal -0.92388 0 0.382683
    outer loop
      vertex -2.5 30 5
      vertex -3.23223 20 3.23223
      vertex -2.5 20 5
    endloop
  endfacet
  facet normal 0.923879 -0 0.382684
    outer loop
      vertex -7.5 0 5
      vertex -7.45972 10 4.90277
      vertex -7.5 10 5
    endloop
  endfacet
  facet normal 0.92388 -1.27132e-08 0.382683
    outer loop
      vertex -7.45972 10 4.90277
      vertex -7.5 0 5
      vertex -6.76777 10 3.23223
    endloop
  endfacet
  facet normal 0.92388 0 0.382683
    outer loop
      vertex -6.76777 10 3.23223
      vertex -7.5 0 5
      vertex -6.76777 0 3.23223
    endloop
  endfacet
  facet normal 0.92388 -0 0.382683
    outer loop
      vertex -7.5 20 5
      vertex -6.76777 30 3.23223
      vertex -7.5 30 5
    endloop
  endfacet
  facet normal 0.92388 0 0.382683
    outer loop
      vertex -6.76777 30 3.23223
      vertex -7.5 20 5
      vertex -6.76777 20 3.23223
    endloop
  endfacet
  facet normal -0.382683 0 -0.92388
    outer loop
      vertex -3.23223 0 6.76777
      vertex -4.58518 10 7.32818
      vertex -3.23223 10 6.76777
    endloop
  endfacet
  facet normal -0.382683 -1.84676e-08 -0.92388
    outer loop
      vertex -5 0 7.5
      vertex -4.58518 10 7.32818
      vertex -3.23223 0 6.76777
    endloop
  endfacet
  facet normal -0.382684 0 -0.923879
    outer loop
      vertex -4.58518 10 7.32818
      vertex -5 0 7.5
      vertex -5 10 7.5
    endloop
  endfacet
  facet normal -0.382683 0 -0.92388
    outer loop
      vertex -5 20 7.5
      vertex -3.23223 30 6.76777
      vertex -3.23223 20 6.76777
    endloop
  endfacet
  facet normal -0.382683 0 -0.92388
    outer loop
      vertex -3.23223 30 6.76777
      vertex -5 20 7.5
      vertex -5 30 7.5
    endloop
  endfacet
  facet normal 0.382683 0 0.92388
    outer loop
      vertex -6.76777 30 3.23223
      vertex -5 20 2.5
      vertex -5 30 2.5
    endloop
  endfacet
  facet normal 0.382683 0 0.92388
    outer loop
      vertex -5 20 2.5
      vertex -6.76777 30 3.23223
      vertex -6.76777 20 3.23223
    endloop
  endfacet
  facet normal 0.382683 0 0.92388
    outer loop
      vertex -6.76777 10 3.23223
      vertex -5 0 2.5
      vertex -5 10 2.5
    endloop
  endfacet
  facet normal 0.382683 0 0.92388
    outer loop
      vertex -5 0 2.5
      vertex -6.76777 10 3.23223
      vertex -6.76777 0 3.23223
    endloop
  endfacet
  facet normal -0.382683 0 0.92388
    outer loop
      vertex -5 30 2.5
      vertex -3.23223 20 3.23223
      vertex -3.23223 30 3.23223
    endloop
  endfacet
  facet normal -0.382683 0 0.92388
    outer loop
      vertex -3.23223 20 3.23223
      vertex -5 30 2.5
      vertex -5 20 2.5
    endloop
  endfacet
  facet normal -0.382683 0 0.92388
    outer loop
      vertex -5 10 2.5
      vertex -3.23223 0 3.23223
      vertex -3.23223 10 3.23223
    endloop
  endfacet
  facet normal -0.382683 0 0.92388
    outer loop
      vertex -3.23223 0 3.23223
      vertex -5 10 2.5
      vertex -5 0 2.5
    endloop
  endfacet
  facet normal -0.92388 0 -0.382683
    outer loop
      vertex -2.5 20 5
      vertex -3.23223 30 6.76777
      vertex -2.5 30 5
    endloop
  endfacet
  facet normal -0.92388 -0 -0.382683
    outer loop
      vertex -3.23223 30 6.76777
      vertex -2.5 20 5
      vertex -3.23223 20 6.76777
    endloop
  endfacet
  facet normal -0.92388 0 -0.382683
    outer loop
      vertex -2.5 0 5
      vertex -3.23223 10 6.76777
      vertex -2.5 10 5
    endloop
  endfacet
  facet normal -0.92388 -0 -0.382683
    outer loop
      vertex -3.23223 10 6.76777
      vertex -2.5 0 5
      vertex -3.23223 0 6.76777
    endloop
  endfacet
  facet normal 0.382683 0 -0.92388
    outer loop
      vertex -6.76777 20 6.76777
      vertex -5 30 7.5
      vertex -5 20 7.5
    endloop
  endfacet
  facet normal 0.382683 0 -0.92388
    outer loop
      vertex -5 30 7.5
      vertex -6.76777 20 6.76777
      vertex -6.76777 30 6.76777
    endloop
  endfacet
  facet normal 0.382683 0 -0.92388
    outer loop
      vertex -6.76777 0 6.76777
      vertex -5 10 7.5
      vertex -5 0 7.5
    endloop
  endfacet
  facet normal 0.382683 0 -0.92388
    outer loop
      vertex -5 10 7.5
      vertex -6.76777 0 6.76777
      vertex -6.76777 10 6.76777
    endloop
  endfacet
  facet normal 0.92388 0 -0.382683
    outer loop
      vertex -6.76777 0 6.76777
      vertex -7.40538 10 5.22843
      vertex -6.76777 10 6.76777
    endloop
  endfacet
  facet normal 0.92388 6.58006e-09 -0.382683
    outer loop
      vertex -7.5 0 5
      vertex -7.40538 10 5.22843
      vertex -6.76777 0 6.76777
    endloop
  endfacet
  facet normal 0.92388 0 -0.382683
    outer loop
      vertex -7.40538 10 5.22843
      vertex -7.5 0 5
      vertex -7.5 10 5
    endloop
  endfacet
  facet normal 0.92388 0 -0.382683
    outer loop
      vertex -6.76777 20 6.76777
      vertex -7.5 30 5
      vertex -6.76777 30 6.76777
    endloop
  endfacet
  facet normal 0.92388 0 -0.382683
    outer loop
      vertex -7.5 30 5
      vertex -6.76777 20 6.76777
      vertex -7.5 20 5
    endloop
  endfacet
  facet normal 0.92388 0.382683 0
    outer loop
      vertex 2.5 95 11
      vertex 1.76777 96.7678 10
      vertex 1.76777 96.7678 11
    endloop
  endfacet
  facet normal 0.92388 0.382683 0
    outer loop
      vertex 1.76777 96.7678 10
      vertex 2.5 95 11
      vertex 2.5 95 10
    endloop
  endfacet
  facet normal -0.382683 0.92388 0
    outer loop
      vertex 0 97.5 10
      vertex -1.76777 96.7678 11
      vertex 0 97.5 11
    endloop
  endfacet
  facet normal -0.382683 0.92388 0
    outer loop
      vertex -1.76777 96.7678 0
      vertex 0 97.5 10
      vertex 0 97.5 0
    endloop
  endfacet
  facet normal -0.382683 0.92388 0
    outer loop
      vertex 0 97.5 10
      vertex -1.76777 96.7678 0
      vertex -1.76777 96.7678 11
    endloop
  endfacet
  facet normal 0.382683 0.92388 -0
    outer loop
      vertex 1.76777 96.7678 10
      vertex 0 97.5 11
      vertex 1.76777 96.7678 11
    endloop
  endfacet
  facet normal 0.382683 0.92388 0
    outer loop
      vertex 0 97.5 11
      vertex 1.76777 96.7678 10
      vertex 0 97.5 10
    endloop
  endfacet
  facet normal 0 0 1
    outer loop
      vertex 1.76777 96.7678 11
      vertex 1.76777 93.2322 11
      vertex 2.5 95 11
    endloop
  endfacet
  facet normal 0 0 1
    outer loop
      vertex 0 97.5 11
      vertex 1.76777 93.2322 11
      vertex 1.76777 96.7678 11
    endloop
  endfacet
  facet normal 0 0 1
    outer loop
      vertex 0 97.5 11
      vertex 0 92.5 11
      vertex 1.76777 93.2322 11
    endloop
  endfacet
  facet normal -0 0 1
    outer loop
      vertex -1.76777 96.7678 11
      vertex 0 92.5 11
      vertex 0 97.5 11
    endloop
  endfacet
  facet normal 0 0 1
    outer loop
      vertex -1.76777 96.7678 11
      vertex -1.76777 93.2322 11
      vertex 0 92.5 11
    endloop
  endfacet
  facet normal 0 -0 1
    outer loop
      vertex -1.76777 93.2322 11
      vertex -1.76777 96.7678 11
      vertex -2.5 95 11
    endloop
  endfacet
  facet normal -0.92388 0.382683 0
    outer loop
      vertex -2.5 95 0
      vertex -1.76777 96.7678 11
      vertex -1.76777 96.7678 0
    endloop
  endfacet
  facet normal -0.92388 0.382683 0
    outer loop
      vertex -1.76777 96.7678 11
      vertex -2.5 95 0
      vertex -2.5 95 11
    endloop
  endfacet
  facet normal 0.92388 -0.382683 0
    outer loop
      vertex 1.76777 93.2322 11
      vertex 2.5 95 10
      vertex 2.5 95 11
    endloop
  endfacet
  facet normal 0.92388 -0.382683 0
    outer loop
      vertex 2.5 95 10
      vertex 1.76777 93.2322 11
      vertex 1.76777 93.2322 10
    endloop
  endfacet
  facet normal -0.382683 -0.92388 0
    outer loop
      vertex -1.76777 93.2322 11
      vertex 0 92.5 10
      vertex 0 92.5 11
    endloop
  endfacet
  facet normal -0.382683 -0.92388 0
    outer loop
      vertex -1.76777 93.2322 0
      vertex 0 92.5 10
      vertex -1.76777 93.2322 11
    endloop
  endfacet
  facet normal -0.382683 -0.92388 -0
    outer loop
      vertex 0 92.5 10
      vertex -1.76777 93.2322 0
      vertex 0 92.5 0
    endloop
  endfacet
  facet normal -0.92388 -0.382683 0
    outer loop
      vertex -1.76777 93.2322 0
      vertex -2.5 95 11
      vertex -2.5 95 0
    endloop
  endfacet
  facet normal -0.92388 -0.382683 0
    outer loop
      vertex -2.5 95 11
      vertex -1.76777 93.2322 0
      vertex -1.76777 93.2322 11
    endloop
  endfacet
  facet normal 0.382683 -0.92388 0
    outer loop
      vertex 0 92.5 10
      vertex 1.76777 93.2322 11
      vertex 0 92.5 11
    endloop
  endfacet
  facet normal 0.382683 -0.92388 0
    outer loop
      vertex 1.76777 93.2322 11
      vertex 0 92.5 10
      vertex 1.76777 93.2322 10
    endloop
  endfacet
  facet normal 0.92388 0.382683 0
    outer loop
      vertex 97.5 0 11
      vertex 96.7678 1.76777 10
      vertex 96.7678 1.76777 11
    endloop
  endfacet
  facet normal 0.92388 0.382683 0
    outer loop
      vertex 96.7678 1.76777 10
      vertex 97.5 0 11
      vertex 97.5 0 10
    endloop
  endfacet
  facet normal -0.92388 -0.382683 0
    outer loop
      vertex 93.2322 -1.76777 0
      vertex 92.5 0 10
      vertex 92.5 0 0
    endloop
  endfacet
  facet normal -0.92388 -0.382683 -0
    outer loop
      vertex 93.2322 -1.76777 11
      vertex 92.5 0 10
      vertex 93.2322 -1.76777 0
    endloop
  endfacet
  facet normal -0.92388 -0.382683 0
    outer loop
      vertex 92.5 0 10
      vertex 93.2322 -1.76777 11
      vertex 92.5 0 11
    endloop
  endfacet
  facet normal -0.382683 0.92388 0
    outer loop
      vertex 95 2.5 10
      vertex 93.2322 1.76777 11
      vertex 95 2.5 11
    endloop
  endfacet
  facet normal -0.382683 0.92388 0
    outer loop
      vertex 93.2322 1.76777 11
      vertex 95 2.5 10
      vertex 93.2322 1.76777 10
    endloop
  endfacet
  facet normal 0.382683 0.92388 -0
    outer loop
      vertex 96.7678 1.76777 10
      vertex 95 2.5 11
      vertex 96.7678 1.76777 11
    endloop
  endfacet
  facet normal 0.382683 0.92388 0
    outer loop
      vertex 95 2.5 11
      vertex 96.7678 1.76777 10
      vertex 95 2.5 10
    endloop
  endfacet
  facet normal 0 0 1
    outer loop
      vertex 96.7678 1.76777 11
      vertex 96.7678 -1.76777 11
      vertex 97.5 0 11
    endloop
  endfacet
  facet normal 0 0 1
    outer loop
      vertex 95 2.5 11
      vertex 96.7678 -1.76777 11
      vertex 96.7678 1.76777 11
    endloop
  endfacet
  facet normal 0 0 1
    outer loop
      vertex 95 2.5 11
      vertex 95 -2.5 11
      vertex 96.7678 -1.76777 11
    endloop
  endfacet
  facet normal -0 0 1
    outer loop
      vertex 93.2322 1.76777 11
      vertex 95 -2.5 11
      vertex 95 2.5 11
    endloop
  endfacet
  facet normal 0 0 1
    outer loop
      vertex 93.2322 1.76777 11
      vertex 93.2322 -1.76777 11
      vertex 95 -2.5 11
    endloop
  endfacet
  facet normal 0 -0 1
    outer loop
      vertex 93.2322 -1.76777 11
      vertex 93.2322 1.76777 11
      vertex 92.5 0 11
    endloop
  endfacet
  facet normal -0.92388 0.382683 0
    outer loop
      vertex 92.5 0 10
      vertex 93.2322 1.76777 11
      vertex 93.2322 1.76777 10
    endloop
  endfacet
  facet normal -0.92388 0.382683 0
    outer loop
      vertex 93.2322 1.76777 11
      vertex 92.5 0 10
      vertex 92.5 0 11
    endloop
  endfacet
  facet normal 0.92388 -0.382683 0
    outer loop
      vertex 96.7678 -1.76777 11
      vertex 97.5 0 10
      vertex 97.5 0 11
    endloop
  endfacet
  facet normal 0.92388 -0.382683 0
    outer loop
      vertex 96.7678 -1.76777 0
      vertex 97.5 0 10
      vertex 96.7678 -1.76777 11
    endloop
  endfacet
  facet normal 0.92388 -0.382683 0
    outer loop
      vertex 97.5 0 10
      vertex 96.7678 -1.76777 0
      vertex 97.5 0 0
    endloop
  endfacet
  facet normal 0.382683 -0.92388 0
    outer loop
      vertex 95 -2.5 0
      vertex 96.7678 -1.76777 11
      vertex 95 -2.5 11
    endloop
  endfacet
  facet normal 0.382683 -0.92388 0
    outer loop
      vertex 96.7678 -1.76777 11
      vertex 95 -2.5 0
      vertex 96.7678 -1.76777 0
    endloop
  endfacet
  facet normal -0.382683 -0.92388 0
    outer loop
      vertex 93.2322 -1.76777 0
      vertex 95 -2.5 11
      vertex 93.2322 -1.76777 11
    endloop
  endfacet
  facet normal -0.382683 -0.92388 -0
    outer loop
      vertex 95 -2.5 11
      vertex 93.2322 -1.76777 0
      vertex 95 -2.5 0
    endloop
  endfacet
endsolid OpenSCAD_Model
