solid OpenSCAD_Model
  facet normal -1 0 0
    outer loop
      vertex 0 0 0
      vertex 0 80 10
      vertex 0 80 0
    endloop
  endfacet
  facet normal -1 -0 0
    outer loop
      vertex 0 80 10
      vertex 0 0 0
      vertex 0 0 10
    endloop
  endfacet
  facet normal -1 0 0
    outer loop
      vertex 0 90 0
      vertex 0 100 10
      vertex 0 100 0
    endloop
  endfacet
  facet normal -1 -0 0
    outer loop
      vertex 0 100 10
      vertex 0 90 0
      vertex 0 90 10
    endloop
  endfacet
  facet normal 0 0 1
    outer loop
      vertex 3 80 10
      vertex 0 80 10
      vertex 3 3 10
    endloop
  endfacet
  facet normal 0 0 1
    outer loop
      vertex 100 100 10
      vertex 97 97 10
      vertex 100 0 10
    endloop
  endfacet
  facet normal 0 0 1
    outer loop
      vertex 100 100 10
      vertex 3 97 10
      vertex 97 97 10
    endloop
  endfacet
  facet normal -0 0 1
    outer loop
      vertex 0 100 10
      vertex 3 97 10
      vertex 100 100 10
    endloop
  endfacet
  facet normal 0 0 1
    outer loop
      vertex 0 90 10
      vertex 3 97 10
      vertex 0 100 10
    endloop
  endfacet
  facet normal 0 0 1
    outer loop
      vertex 3 97 10
      vertex 0 90 10
      vertex 3 90 10
    endloop
  endfacet
  facet normal -0 0 1
    outer loop
      vertex 97 3 10
      vertex 100 0 10
      vertex 97 97 10
    endloop
  endfacet
  facet normal -0 0 1
    outer loop
      vertex 3 3 10
      vertex 100 0 10
      vertex 97 3 10
    endloop
  endfacet
  facet normal 0 0 1
    outer loop
      vertex 3 3 10
      vertex 0 0 10
      vertex 100 0 10
    endloop
  endfacet
  facet normal 0 0 1
    outer loop
      vertex 0 0 10
      vertex 3 3 10
      vertex 0 80 10
    endloop
  endfacet
  facet normal 1 -0 0
    outer loop
      vertex 100 0 10
      vertex 100 100 0
      vertex 100 100 10
    endloop
  endfacet
  facet normal 1 0 0
    outer loop
      vertex 100 100 0
      vertex 100 0 10
      vertex 100 0 0
    endloop
  endfacet
  facet normal 0 1 -0
    outer loop
      vertex 100 100 0
      vertex 0 100 10
      vertex 100 100 10
    endloop
  endfacet
  facet normal 0 1 0
    outer loop
      vertex 0 100 10
      vertex 100 100 0
      vertex 0 100 0
    endloop
  endfacet
  facet normal 0 0 -1
    outer loop
      vertex -5 80 0
      vertex 0 90 0
      vertex 0 80 0
    endloop
  endfacet
  facet normal -0 0 -1
    outer loop
      vertex 0 90 0
      vertex -5 80 0
      vertex -5 90 0
    endloop
  endfacet
  facet normal 0 0 -1
    outer loop
      vertex 44.4921 50.416 0
      vertex 43.5591 50.416 0
      vertex 44.4921 53.84 0
    endloop
  endfacet
  facet normal 0 0 -1
    outer loop
      vertex 44.9841 50.416 0
      vertex 45.8481 52.752 0
      vertex 45.9601 50.416 0
    endloop
  endfacet
  facet normal -0 0 -1
    outer loop
      vertex 45.8481 52.752 0
      vertex 44.9841 50.416 0
      vertex 44.9841 53.372 0
    endloop
  endfacet
  facet normal 0 0 -1
    outer loop
      vertex 100 0 0
      vertex 49.976 53.84 0
      vertex 100 100 0
    endloop
  endfacet
  facet normal 0 0 -1
    outer loop
      vertex 100 0 0
      vertex 48.413 50 0
      vertex 49.976 53.84 0
    endloop
  endfacet
  facet normal 0 0 -1
    outer loop
      vertex 0 0 0
      vertex 48.413 50 0
      vertex 100 0 0
    endloop
  endfacet
  facet normal 0 0 -1
    outer loop
      vertex 45.9601 50.416 0
      vertex 47.875 50 0
      vertex 45.9601 50 0
    endloop
  endfacet
  facet normal -0 0 -1
    outer loop
      vertex 48.413 50 0
      vertex 0 0 0
      vertex 47.875 50 0
    endloop
  endfacet
  facet normal -0 0 -1
    outer loop
      vertex 47.875 50 0
      vertex 0 0 0
      vertex 45.9601 50 0
    endloop
  endfacet
  facet normal 0 0 -1
    outer loop
      vertex 0 80 0
      vertex 43.5591 50 0
      vertex 0 0 0
    endloop
  endfacet
  facet normal -0 0 -1
    outer loop
      vertex 45.9601 50 0
      vertex 0 0 0
      vertex 43.5591 50 0
    endloop
  endfacet
  facet normal 0 0 -1
    outer loop
      vertex 49.429 53.84 0
      vertex 100 100 0
      vertex 49.976 53.84 0
    endloop
  endfacet
  facet normal 0 0 -1
    outer loop
      vertex 47.913 51.136 0
      vertex 48.369 51.136 0
      vertex 48.141 50.457 0
    endloop
  endfacet
  facet normal 0 0 -1
    outer loop
      vertex 47.913 51.136 0
      vertex 49.429 53.84 0
      vertex 48.369 51.136 0
    endloop
  endfacet
  facet normal 0 0 -1
    outer loop
      vertex 46.858 53.84 0
      vertex 49.429 53.84 0
      vertex 47.913 51.136 0
    endloop
  endfacet
  facet normal 0 0 -1
    outer loop
      vertex 0 100 0
      vertex 49.429 53.84 0
      vertex 46.858 53.84 0
    endloop
  endfacet
  facet normal 0 0 -1
    outer loop
      vertex 0 100 0
      vertex 46.858 53.84 0
      vertex 46.312 53.84 0
    endloop
  endfacet
  facet normal 0 0 -1
    outer loop
      vertex 45.8481 52.752 0
      vertex 47.875 50 0
      vertex 45.9601 50.416 0
    endloop
  endfacet
  facet normal 0 0 -1
    outer loop
      vertex 47.875 50 0
      vertex 45.8481 52.752 0
      vertex 46.312 53.84 0
    endloop
  endfacet
  facet normal 0 0 -1
    outer loop
      vertex 45.8481 53.214 0
      vertex 46.312 53.84 0
      vertex 45.8481 52.752 0
    endloop
  endfacet
  facet normal 0 0 -1
    outer loop
      vertex 44.9431 53.84 0
      vertex 46.312 53.84 0
      vertex 45.8481 53.214 0
    endloop
  endfacet
  facet normal 0 0 -1
    outer loop
      vertex 0 100 0
      vertex 46.312 53.84 0
      vertex 44.9431 53.84 0
    endloop
  endfacet
  facet normal 0 0 -1
    outer loop
      vertex 0 100 0
      vertex 44.9431 53.84 0
      vertex 44.4921 53.84 0
    endloop
  endfacet
  facet normal 0 0 -1
    outer loop
      vertex 43.5591 50 0
      vertex 0 80 0
      vertex 43.5591 50.416 0
    endloop
  endfacet
  facet normal 0 0 -1
    outer loop
      vertex 43.5591 50.416 0
      vertex 0 80 0
      vertex 44.4921 53.84 0
    endloop
  endfacet
  facet normal 0 0 -1
    outer loop
      vertex 0 90 0
      vertex 44.4921 53.84 0
      vertex 0 80 0
    endloop
  endfacet
  facet normal 0 0 -1
    outer loop
      vertex 0 100 0
      vertex 44.4921 53.84 0
      vertex 0 90 0
    endloop
  endfacet
  facet normal 0 0 -1
    outer loop
      vertex 49.429 53.84 0
      vertex 0 100 0
      vertex 100 100 0
    endloop
  endfacet
  facet normal 0 -1 0
    outer loop
      vertex 0 0 0
      vertex 100 0 10
      vertex 0 0 10
    endloop
  endfacet
  facet normal 0 -1 -0
    outer loop
      vertex 100 0 10
      vertex 0 0 0
      vertex 100 0 0
    endloop
  endfacet
  facet normal 1 -0 0
    outer loop
      vertex 3 90 10
      vertex 3 97 1
      vertex 3 97 10
    endloop
  endfacet
  facet normal 1 0 0
    outer loop
      vertex 3 97 1
      vertex 3 90 10
      vertex 3 90 1
    endloop
  endfacet
  facet normal 1 -0 0
    outer loop
      vertex 3 3 10
      vertex 3 80 1
      vertex 3 80 10
    endloop
  endfacet
  facet normal 1 0 0
    outer loop
      vertex 3 80 1
      vertex 3 3 10
      vertex 3 3 1
    endloop
  endfacet
  facet normal -1 0 0
    outer loop
      vertex 97 3 1
      vertex 97 97 10
      vertex 97 97 1
    endloop
  endfacet
  facet normal -1 -0 0
    outer loop
      vertex 97 97 10
      vertex 97 3 1
      vertex 97 3 10
    endloop
  endfacet
  facet normal 0 0 1
    outer loop
      vertex 97 97 1
      vertex 49.976 53.84 1
      vertex 97 3 1
    endloop
  endfacet
  facet normal -0 0 1
    outer loop
      vertex 5 90 1
      vertex 49.976 53.84 1
      vertex 97 97 1
    endloop
  endfacet
  facet normal 0 0 1
    outer loop
      vertex 48.369 51.136 1
      vertex 47.913 51.136 1
      vertex 48.141 50.457 1
    endloop
  endfacet
  facet normal 0 0 1
    outer loop
      vertex 49.429 53.84 1
      vertex 47.913 51.136 1
      vertex 48.369 51.136 1
    endloop
  endfacet
  facet normal 0 0 1
    outer loop
      vertex 49.429 53.84 1
      vertex 46.858 53.84 1
      vertex 47.913 51.136 1
    endloop
  endfacet
  facet normal 0 0 1
    outer loop
      vertex 49.976 53.84 1
      vertex 5 90 1
      vertex 49.429 53.84 1
    endloop
  endfacet
  facet normal 0 0 1
    outer loop
      vertex 49.429 53.84 1
      vertex 5 90 1
      vertex 46.858 53.84 1
    endloop
  endfacet
  facet normal 0 0 1
    outer loop
      vertex 46.312 53.84 1
      vertex 45.8481 52.752 1
      vertex 47.875 50 1
    endloop
  endfacet
  facet normal 0 0 1
    outer loop
      vertex 46.312 53.84 1
      vertex 44.9431 53.84 1
      vertex 45.8481 53.214 1
    endloop
  endfacet
  facet normal 0 0 1
    outer loop
      vertex 46.858 53.84 1
      vertex 5 90 1
      vertex 46.312 53.84 1
    endloop
  endfacet
  facet normal 0 0 1
    outer loop
      vertex 46.312 53.84 1
      vertex 5 90 1
      vertex 44.9431 53.84 1
    endloop
  endfacet
  facet normal 0 0 1
    outer loop
      vertex 44.4921 53.84 1
      vertex 43.5591 50.416 1
      vertex 44.4921 50.416 1
    endloop
  endfacet
  facet normal 0 0 1
    outer loop
      vertex 44.4921 53.84 1
      vertex 5 80 1
      vertex 43.5591 50.416 1
    endloop
  endfacet
  facet normal -0 0 1
    outer loop
      vertex 5 80 1
      vertex 44.4921 53.84 1
      vertex 5 90 1
    endloop
  endfacet
  facet normal 0 0 1
    outer loop
      vertex 44.9431 53.84 1
      vertex 5 90 1
      vertex 44.4921 53.84 1
    endloop
  endfacet
  facet normal -0 0 1
    outer loop
      vertex 3 97 1
      vertex 5 90 1
      vertex 97 97 1
    endloop
  endfacet
  facet normal 0 0 1
    outer loop
      vertex 5 90 1
      vertex 3 97 1
      vertex 3 90 1
    endloop
  endfacet
  facet normal -0 0 1
    outer loop
      vertex 48.413 50 1
      vertex 97 3 1
      vertex 49.976 53.84 1
    endloop
  endfacet
  facet normal 0 0 1
    outer loop
      vertex 3 3 1
      vertex 48.413 50 1
      vertex 47.875 50 1
    endloop
  endfacet
  facet normal 0 0 1
    outer loop
      vertex 45.8481 52.752 1
      vertex 46.312 53.84 1
      vertex 45.8481 53.214 1
    endloop
  endfacet
  facet normal 0 0 1
    outer loop
      vertex 45.9601 50 1
      vertex 47.875 50 1
      vertex 45.9601 50.416 1
    endloop
  endfacet
  facet normal 0 0 1
    outer loop
      vertex 3 3 1
      vertex 47.875 50 1
      vertex 45.9601 50 1
    endloop
  endfacet
  facet normal 0 0 1
    outer loop
      vertex 3 3 1
      vertex 45.9601 50 1
      vertex 43.5591 50 1
    endloop
  endfacet
  facet normal 0 0 1
    outer loop
      vertex 43.5591 50.416 1
      vertex 5 80 1
      vertex 43.5591 50 1
    endloop
  endfacet
  facet normal 0 0 1
    outer loop
      vertex 3 3 1
      vertex 43.5591 50 1
      vertex 5 80 1
    endloop
  endfacet
  facet normal 0 0 1
    outer loop
      vertex 3 3 1
      vertex 5 80 1
      vertex 3 80 1
    endloop
  endfacet
  facet normal 0 0 1
    outer loop
      vertex 48.413 50 1
      vertex 3 3 1
      vertex 97 3 1
    endloop
  endfacet
  facet normal 0 0 1
    outer loop
      vertex 47.875 50 1
      vertex 45.8481 52.752 1
      vertex 45.9601 50.416 1
    endloop
  endfacet
  facet normal 0 0 1
    outer loop
      vertex 44.9841 50.416 1
      vertex 45.8481 52.752 1
      vertex 44.9841 53.372 1
    endloop
  endfacet
  facet normal 0 0 1
    outer loop
      vertex 45.8481 52.752 1
      vertex 44.9841 50.416 1
      vertex 45.9601 50.416 1
    endloop
  endfacet
  facet normal 0 1 -0
    outer loop
      vertex 97 3 1
      vertex 3 3 10
      vertex 97 3 10
    endloop
  endfacet
  facet normal 0 1 0
    outer loop
      vertex 3 3 10
      vertex 97 3 1
      vertex 3 3 1
    endloop
  endfacet
  facet normal 0 -1 0
    outer loop
      vertex 3 97 1
      vertex 97 97 10
      vertex 3 97 10
    endloop
  endfacet
  facet normal 0 -1 -0
    outer loop
      vertex 97 97 10
      vertex 3 97 1
      vertex 97 97 1
    endloop
  endfacet
  facet normal 0 -1 0
    outer loop
      vertex 46.312 53.84 0
      vertex 46.858 53.84 1
      vertex 46.312 53.84 1
    endloop
  endfacet
  facet normal 0 -1 -0
    outer loop
      vertex 46.858 53.84 1
      vertex 46.312 53.84 0
      vertex 46.858 53.84 0
    endloop
  endfacet
  facet normal -0.931603 -0.363478 0
    outer loop
      vertex 47.913 51.136 0
      vertex 46.858 53.84 1
      vertex 46.858 53.84 0
    endloop
  endfacet
  facet normal -0.931603 -0.363478 0
    outer loop
      vertex 46.858 53.84 1
      vertex 47.913 51.136 0
      vertex 47.913 51.136 1
    endloop
  endfacet
  facet normal -0.947984 -0.318317 0
    outer loop
      vertex 48.141 50.457 0
      vertex 47.913 51.136 1
      vertex 47.913 51.136 0
    endloop
  endfacet
  facet normal -0.947984 -0.318317 0
    outer loop
      vertex 47.913 51.136 1
      vertex 48.141 50.457 0
      vertex 48.141 50.457 1
    endloop
  endfacet
  facet normal 0.947984 -0.318317 0
    outer loop
      vertex 48.141 50.457 1
      vertex 48.369 51.136 0
      vertex 48.369 51.136 1
    endloop
  endfacet
  facet normal 0.947984 -0.318317 0
    outer loop
      vertex 48.369 51.136 0
      vertex 48.141 50.457 1
      vertex 48.141 50.457 0
    endloop
  endfacet
  facet normal 0.93102 -0.364969 0
    outer loop
      vertex 48.369 51.136 1
      vertex 49.429 53.84 0
      vertex 49.429 53.84 1
    endloop
  endfacet
  facet normal 0.93102 -0.364969 0
    outer loop
      vertex 49.429 53.84 0
      vertex 48.369 51.136 1
      vertex 48.369 51.136 0
    endloop
  endfacet
  facet normal 0 -1 0
    outer loop
      vertex 49.429 53.84 0
      vertex 49.976 53.84 1
      vertex 49.429 53.84 1
    endloop
  endfacet
  facet normal 0 -1 -0
    outer loop
      vertex 49.976 53.84 1
      vertex 49.429 53.84 0
      vertex 49.976 53.84 0
    endloop
  endfacet
  facet normal -0.926214 0.376999 0
    outer loop
      vertex 48.413 50 0
      vertex 49.976 53.84 1
      vertex 49.976 53.84 0
    endloop
  endfacet
  facet normal -0.926214 0.376999 0
    outer loop
      vertex 49.976 53.84 1
      vertex 48.413 50 0
      vertex 48.413 50 1
    endloop
  endfacet
  facet normal 0 1 -0
    outer loop
      vertex 48.413 50 0
      vertex 47.875 50 1
      vertex 48.413 50 1
    endloop
  endfacet
  facet normal 0 1 0
    outer loop
      vertex 47.875 50 1
      vertex 48.413 50 0
      vertex 47.875 50 0
    endloop
  endfacet
  facet normal 0.926215 0.376996 0
    outer loop
      vertex 47.875 50 1
      vertex 46.312 53.84 0
      vertex 46.312 53.84 1
    endloop
  endfacet
  facet normal 0.926215 0.376996 0
    outer loop
      vertex 46.312 53.84 0
      vertex 47.875 50 1
      vertex 47.875 50 0
    endloop
  endfacet
  facet normal 0 -1 0
    outer loop
      vertex 43.5591 50.416 0
      vertex 44.4921 50.416 1
      vertex 43.5591 50.416 1
    endloop
  endfacet
  facet normal 0 -1 -0
    outer loop
      vertex 44.4921 50.416 1
      vertex 43.5591 50.416 0
      vertex 44.4921 50.416 0
    endloop
  endfacet
  facet normal 1 -0 0
    outer loop
      vertex 44.4921 50.416 1
      vertex 44.4921 53.84 0
      vertex 44.4921 53.84 1
    endloop
  endfacet
  facet normal 1 0 0
    outer loop
      vertex 44.4921 53.84 0
      vertex 44.4921 50.416 1
      vertex 44.4921 50.416 0
    endloop
  endfacet
  facet normal 0 -1 0
    outer loop
      vertex 44.4921 53.84 0
      vertex 44.9431 53.84 1
      vertex 44.4921 53.84 1
    endloop
  endfacet
  facet normal 0 -1 -0
    outer loop
      vertex 44.9431 53.84 1
      vertex 44.4921 53.84 0
      vertex 44.9431 53.84 0
    endloop
  endfacet
  facet normal -0.568884 -0.822418 0
    outer loop
      vertex 44.9431 53.84 0
      vertex 45.8481 53.214 1
      vertex 44.9431 53.84 1
    endloop
  endfacet
  facet normal -0.568884 -0.822418 -0
    outer loop
      vertex 45.8481 53.214 1
      vertex 44.9431 53.84 0
      vertex 45.8481 53.214 0
    endloop
  endfacet
  facet normal -1 0 0
    outer loop
      vertex 45.8481 52.752 0
      vertex 45.8481 53.214 1
      vertex 45.8481 53.214 0
    endloop
  endfacet
  facet normal -1 -0 0
    outer loop
      vertex 45.8481 53.214 1
      vertex 45.8481 52.752 0
      vertex 45.8481 52.752 1
    endloop
  endfacet
  facet normal 0.583014 0.812462 -0
    outer loop
      vertex 45.8481 52.752 0
      vertex 44.9841 53.372 1
      vertex 45.8481 52.752 1
    endloop
  endfacet
  facet normal 0.583014 0.812462 0
    outer loop
      vertex 44.9841 53.372 1
      vertex 45.8481 52.752 0
      vertex 44.9841 53.372 0
    endloop
  endfacet
  facet normal -1 0 0
    outer loop
      vertex 44.9841 50.416 0
      vertex 44.9841 53.372 1
      vertex 44.9841 53.372 0
    endloop
  endfacet
  facet normal -1 -0 0
    outer loop
      vertex 44.9841 53.372 1
      vertex 44.9841 50.416 0
      vertex 44.9841 50.416 1
    endloop
  endfacet
  facet normal 0 -1 0
    outer loop
      vertex 44.9841 50.416 0
      vertex 45.9601 50.416 1
      vertex 44.9841 50.416 1
    endloop
  endfacet
  facet normal 0 -1 -0
    outer loop
      vertex 45.9601 50.416 1
      vertex 44.9841 50.416 0
      vertex 45.9601 50.416 0
    endloop
  endfacet
  facet normal -1 0 0
    outer loop
      vertex 45.9601 50 0
      vertex 45.9601 50.416 1
      vertex 45.9601 50.416 0
    endloop
  endfacet
  facet normal -1 -0 0
    outer loop
      vertex 45.9601 50.416 1
      vertex 45.9601 50 0
      vertex 45.9601 50 1
    endloop
  endfacet
  facet normal 0 1 -0
    outer loop
      vertex 45.9601 50 0
      vertex 43.5591 50 1
      vertex 45.9601 50 1
    endloop
  endfacet
  facet normal 0 1 0
    outer loop
      vertex 43.5591 50 1
      vertex 45.9601 50 0
      vertex 43.5591 50 0
    endloop
  endfacet
  facet normal 1 -0 0
    outer loop
      vertex 43.5591 50 1
      vertex 43.5591 50.416 0
      vertex 43.5591 50.416 1
    endloop
  endfacet
  facet normal 1 0 0
    outer loop
      vertex 43.5591 50.416 0
      vertex 43.5591 50 1
      vertex 43.5591 50 0
    endloop
  endfacet
  facet normal -1 0 0
    outer loop
      vertex -5 80 0
      vertex -5 90 15
      vertex -5 90 0
    endloop
  endfacet
  facet normal -1 -0 0
    outer loop
      vertex -5 90 15
      vertex -5 80 0
      vertex -5 80 15
    endloop
  endfacet
  facet normal 1 -0 0
    outer loop
      vertex 5 80 15
      vertex 5 90 1
      vertex 5 90 15
    endloop
  endfacet
  facet normal 1 0 0
    outer loop
      vertex 5 90 1
      vertex 5 80 15
      vertex 5 80 1
    endloop
  endfacet
  facet normal 0 1 0
    outer loop
      vertex 0 90 17.5
      vertex 0 90 20
      vertex 1.91342 90 19.6194
    endloop
  endfacet
  facet normal 0 1 0
    outer loop
      vertex 1.76777 90 16.7678
      vertex 1.91342 90 19.6194
      vertex 3.53553 90 18.5355
    endloop
  endfacet
  facet normal 0 1 0
    outer loop
      vertex 0 90 20
      vertex 0 90 17.5
      vertex -1.91342 90 19.6194
    endloop
  endfacet
  facet normal 0 1 -0
    outer loop
      vertex -1.76777 90 16.7678
      vertex -1.91342 90 19.6194
      vertex 0 90 17.5
    endloop
  endfacet
  facet normal 0 1 0
    outer loop
      vertex 1.76777 90 16.7678
      vertex 3.53553 90 18.5355
      vertex 4.6194 90 16.9134
    endloop
  endfacet
  facet normal 0 1 0
    outer loop
      vertex 1.91342 90 19.6194
      vertex 1.76777 90 16.7678
      vertex 0 90 17.5
    endloop
  endfacet
  facet normal 0 1 0
    outer loop
      vertex 2.5 90 15
      vertex 4.6194 90 16.9134
      vertex 5 90 15
    endloop
  endfacet
  facet normal 0 1 0
    outer loop
      vertex 4.6194 90 16.9134
      vertex 2.5 90 15
      vertex 1.76777 90 16.7678
    endloop
  endfacet
  facet normal 0 1 0
    outer loop
      vertex 5 90 15
      vertex 1.76777 90 13.2322
      vertex 2.5 90 15
    endloop
  endfacet
  facet normal 0 1 0
    outer loop
      vertex 1.76777 90 13.2322
      vertex 3 90 10
      vertex 0 90 12.5
    endloop
  endfacet
  facet normal 0 1 0
    outer loop
      vertex 5 90 15
      vertex 3 90 10
      vertex 1.76777 90 13.2322
    endloop
  endfacet
  facet normal 0 1 -0
    outer loop
      vertex 5 90 1
      vertex 3 90 10
      vertex 5 90 15
    endloop
  endfacet
  facet normal 0 1 0
    outer loop
      vertex 3 90 10
      vertex 5 90 1
      vertex 3 90 1
    endloop
  endfacet
  facet normal 0 1 0
    outer loop
      vertex -1.91342 90 19.6194
      vertex -1.76777 90 16.7678
      vertex -3.53553 90 18.5355
    endloop
  endfacet
  facet normal 0 1 0
    outer loop
      vertex -3.53553 90 18.5355
      vertex -1.76777 90 16.7678
      vertex -4.6194 90 16.9134
    endloop
  endfacet
  facet normal 0 1 -0
    outer loop
      vertex -2.5 90 15
      vertex -4.6194 90 16.9134
      vertex -1.76777 90 16.7678
    endloop
  endfacet
  facet normal 0 1 0
    outer loop
      vertex -2.5 90 15
      vertex -5 90 15
      vertex -4.6194 90 16.9134
    endloop
  endfacet
  facet normal 0 1 0
    outer loop
      vertex -1.76777 90 13.2322
      vertex -5 90 15
      vertex -2.5 90 15
    endloop
  endfacet
  facet normal 0 1 0
    outer loop
      vertex 0 90 10
      vertex 0 90 12.5
      vertex 3 90 10
    endloop
  endfacet
  facet normal 0 1 0
    outer loop
      vertex 0 90 12.5
      vertex 0 90 10
      vertex -1.76777 90 13.2322
    endloop
  endfacet
  facet normal 0 1 0
    outer loop
      vertex -1.76777 90 13.2322
      vertex 0 90 10
      vertex -5 90 15
    endloop
  endfacet
  facet normal 0 1 0
    outer loop
      vertex -5 90 0
      vertex 0 90 10
      vertex 0 90 0
    endloop
  endfacet
  facet normal 0 1 0
    outer loop
      vertex 0 90 10
      vertex -5 90 0
      vertex -5 90 15
    endloop
  endfacet
  facet normal 0 -1 0
    outer loop
      vertex 0 80 17.5
      vertex 0 80 20
      vertex -1.91342 80 19.6194
    endloop
  endfacet
  facet normal 0 -1 0
    outer loop
      vertex -1.76777 80 16.7678
      vertex -1.91342 80 19.6194
      vertex -3.53553 80 18.5355
    endloop
  endfacet
  facet normal 0 -1 0
    outer loop
      vertex 0 80 20
      vertex 0 80 17.5
      vertex 1.91342 80 19.6194
    endloop
  endfacet
  facet normal 0 -1 0
    outer loop
      vertex 1.76777 80 16.7678
      vertex 1.91342 80 19.6194
      vertex 0 80 17.5
    endloop
  endfacet
  facet normal 0 -1 0
    outer loop
      vertex -1.76777 80 16.7678
      vertex -3.53553 80 18.5355
      vertex -4.6194 80 16.9134
    endloop
  endfacet
  facet normal 0 -1 0
    outer loop
      vertex -1.91342 80 19.6194
      vertex -1.76777 80 16.7678
      vertex 0 80 17.5
    endloop
  endfacet
  facet normal 0 -1 0
    outer loop
      vertex -2.5 80 15
      vertex -4.6194 80 16.9134
      vertex -5 80 15
    endloop
  endfacet
  facet normal 0 -1 0
    outer loop
      vertex -4.6194 80 16.9134
      vertex -2.5 80 15
      vertex -1.76777 80 16.7678
    endloop
  endfacet
  facet normal 0 -1 0
    outer loop
      vertex -5 80 15
      vertex -1.76777 80 13.2322
      vertex -2.5 80 15
    endloop
  endfacet
  facet normal 0 -1 0
    outer loop
      vertex -1.76777 80 13.2322
      vertex 0 80 10
      vertex 0 80 12.5
    endloop
  endfacet
  facet normal 0 -1 0
    outer loop
      vertex -5 80 15
      vertex 0 80 10
      vertex -1.76777 80 13.2322
    endloop
  endfacet
  facet normal 0 -1 0
    outer loop
      vertex -5 80 0
      vertex 0 80 10
      vertex -5 80 15
    endloop
  endfacet
  facet normal 0 -1 -0
    outer loop
      vertex 0 80 10
      vertex -5 80 0
      vertex 0 80 0
    endloop
  endfacet
  facet normal 0 -1 -0
    outer loop
      vertex 1.91342 80 19.6194
      vertex 1.76777 80 16.7678
      vertex 3.53553 80 18.5355
    endloop
  endfacet
  facet normal 0 -1 -0
    outer loop
      vertex 3.53553 80 18.5355
      vertex 1.76777 80 16.7678
      vertex 4.6194 80 16.9134
    endloop
  endfacet
  facet normal 0 -1 0
    outer loop
      vertex 2.5 80 15
      vertex 4.6194 80 16.9134
      vertex 1.76777 80 16.7678
    endloop
  endfacet
  facet normal 0 -1 0
    outer loop
      vertex 2.5 80 15
      vertex 5 80 15
      vertex 4.6194 80 16.9134
    endloop
  endfacet
  facet normal 0 -1 0
    outer loop
      vertex 1.76777 80 13.2322
      vertex 5 80 15
      vertex 2.5 80 15
    endloop
  endfacet
  facet normal 0 -1 0
    outer loop
      vertex 3 80 10
      vertex 0 80 12.5
      vertex 0 80 10
    endloop
  endfacet
  facet normal 0 -1 0
    outer loop
      vertex 0 80 12.5
      vertex 3 80 10
      vertex 1.76777 80 13.2322
    endloop
  endfacet
  facet normal 0 -1 0
    outer loop
      vertex 1.76777 80 13.2322
      vertex 3 80 10
      vertex 5 80 15
    endloop
  endfacet
  facet normal 0 -1 0
    outer loop
      vertex 5 80 1
      vertex 3 80 10
      vertex 3 80 1
    endloop
  endfacet
  facet normal 0 -1 0
    outer loop
      vertex 3 80 10
      vertex 5 80 1
      vertex 5 80 15
    endloop
  endfacet
  facet normal -0.195091 0 0.980785
    outer loop
      vertex -1.91342 90 19.6194
      vertex 0 80 20
      vertex 0 90 20
    endloop
  endfacet
  facet normal -0.195091 0 0.980785
    outer loop
      vertex 0 80 20
      vertex -1.91342 90 19.6194
      vertex -1.91342 80 19.6194
    endloop
  endfacet
  facet normal -0.55557 0 0.83147
    outer loop
      vertex -3.53553 90 18.5355
      vertex -1.91342 80 19.6194
      vertex -1.91342 90 19.6194
    endloop
  endfacet
  facet normal -0.55557 0 0.83147
    outer loop
      vertex -1.91342 80 19.6194
      vertex -3.53553 90 18.5355
      vertex -3.53553 80 18.5355
    endloop
  endfacet
  facet normal -0.980785 0 0.195091
    outer loop
      vertex -5 80 15
      vertex -4.6194 90 16.9134
      vertex -5 90 15
    endloop
  endfacet
  facet normal -0.980785 0 0.195091
    outer loop
      vertex -4.6194 90 16.9134
      vertex -5 80 15
      vertex -4.6194 80 16.9134
    endloop
  endfacet
  facet normal 0.980785 -0 0.195091
    outer loop
      vertex 4.6194 80 16.9134
      vertex 5 90 15
      vertex 4.6194 90 16.9134
    endloop
  endfacet
  facet normal 0.980785 0 0.195091
    outer loop
      vertex 5 90 15
      vertex 4.6194 80 16.9134
      vertex 5 80 15
    endloop
  endfacet
  facet normal 0.55557 0 0.83147
    outer loop
      vertex 1.91342 90 19.6194
      vertex 3.53553 80 18.5355
      vertex 3.53553 90 18.5355
    endloop
  endfacet
  facet normal 0.55557 0 0.83147
    outer loop
      vertex 3.53553 80 18.5355
      vertex 1.91342 90 19.6194
      vertex 1.91342 80 19.6194
    endloop
  endfacet
  facet normal 0.195091 0 0.980785
    outer loop
      vertex 0 90 20
      vertex 1.91342 80 19.6194
      vertex 1.91342 90 19.6194
    endloop
  endfacet
  facet normal 0.195091 0 0.980785
    outer loop
      vertex 1.91342 80 19.6194
      vertex 0 90 20
      vertex 0 80 20
    endloop
  endfacet
  facet normal 0.83147 -0 0.55557
    outer loop
      vertex 3.53553 80 18.5355
      vertex 4.6194 90 16.9134
      vertex 3.53553 90 18.5355
    endloop
  endfacet
  facet normal 0.83147 0 0.55557
    outer loop
      vertex 4.6194 90 16.9134
      vertex 3.53553 80 18.5355
      vertex 4.6194 80 16.9134
    endloop
  endfacet
  facet normal -0.83147 0 0.55557
    outer loop
      vertex -4.6194 80 16.9134
      vertex -3.53553 90 18.5355
      vertex -4.6194 90 16.9134
    endloop
  endfacet
  facet normal -0.83147 0 0.55557
    outer loop
      vertex -3.53553 90 18.5355
      vertex -4.6194 80 16.9134
      vertex -3.53553 80 18.5355
    endloop
  endfacet
  facet normal -0.92388 0 0.382683
    outer loop
      vertex 1.76777 80 13.2322
      vertex 2.5 90 15
      vertex 1.76777 90 13.2322
    endloop
  endfacet
  facet normal -0.92388 0 0.382683
    outer loop
      vertex 2.5 90 15
      vertex 1.76777 80 13.2322
      vertex 2.5 80 15
    endloop
  endfacet
  facet normal 0.92388 -0 0.382683
    outer loop
      vertex -2.5 80 15
      vertex -1.76777 90 13.2322
      vertex -2.5 90 15
    endloop
  endfacet
  facet normal 0.92388 0 0.382683
    outer loop
      vertex -1.76777 90 13.2322
      vertex -2.5 80 15
      vertex -1.76777 80 13.2322
    endloop
  endfacet
  facet normal -0.382683 0 -0.92388
    outer loop
      vertex 0 80 17.5
      vertex 1.76777 90 16.7678
      vertex 1.76777 80 16.7678
    endloop
  endfacet
  facet normal -0.382683 0 -0.92388
    outer loop
      vertex 1.76777 90 16.7678
      vertex 0 80 17.5
      vertex 0 90 17.5
    endloop
  endfacet
  facet normal 0.382683 0 0.92388
    outer loop
      vertex -1.76777 90 13.2322
      vertex 0 80 12.5
      vertex 0 90 12.5
    endloop
  endfacet
  facet normal 0.382683 0 0.92388
    outer loop
      vertex 0 80 12.5
      vertex -1.76777 90 13.2322
      vertex -1.76777 80 13.2322
    endloop
  endfacet
  facet normal -0.382683 0 0.92388
    outer loop
      vertex 0 90 12.5
      vertex 1.76777 80 13.2322
      vertex 1.76777 90 13.2322
    endloop
  endfacet
  facet normal -0.382683 0 0.92388
    outer loop
      vertex 1.76777 80 13.2322
      vertex 0 90 12.5
      vertex 0 80 12.5
    endloop
  endfacet
  facet normal 0.92388 0 -0.382683
    outer loop
      vertex -1.76777 80 16.7678
      vertex -2.5 90 15
      vertex -1.76777 90 16.7678
    endloop
  endfacet
  facet normal 0.92388 0 -0.382683
    outer loop
      vertex -2.5 90 15
      vertex -1.76777 80 16.7678
      vertex -2.5 80 15
    endloop
  endfacet
  facet normal -0.92388 0 -0.382683
    outer loop
      vertex 2.5 80 15
      vertex 1.76777 90 16.7678
      vertex 2.5 90 15
    endloop
  endfacet
  facet normal -0.92388 -0 -0.382683
    outer loop
      vertex 1.76777 90 16.7678
      vertex 2.5 80 15
      vertex 1.76777 80 16.7678
    endloop
  endfacet
  facet normal 0.382683 0 -0.92388
    outer loop
      vertex -1.76777 80 16.7678
      vertex 0 90 17.5
      vertex 0 80 17.5
    endloop
  endfacet
  facet normal 0.382683 0 -0.92388
    outer loop
      vertex 0 90 17.5
      vertex -1.76777 80 16.7678
      vertex -1.76777 90 16.7678
    endloop
  endfacet
endsolid OpenSCAD_Model
