solid OpenSCAD_Model
  facet normal 1 -0 0
    outer loop
      vertex 3 31.2843 10
      vertex 3 97 3
      vertex 3 97 10
    endloop
  endfacet
  facet normal 1 0 0
    outer loop
      vertex 3 97 3
      vertex 3 31.2843 10
      vertex 3 31.2843 3
    endloop
  endfacet
  facet normal 0 0 1
    outer loop
      vertex 20 80 3
      vertex 7.5 50 3
      vertex 20 20 3
    endloop
  endfacet
  facet normal 0 0 1
    outer loop
      vertex 20 80 3
      vertex 7.45287 50.373 3
      vertex 7.5 50 3
    endloop
  endfacet
  facet normal 0 0 1
    outer loop
      vertex 20 80 3
      vertex 7.31446 50.7226 3
      vertex 7.45287 50.373 3
    endloop
  endfacet
  facet normal 0 0 1
    outer loop
      vertex 20 80 3
      vertex 7.09345 51.0268 3
      vertex 7.31446 50.7226 3
    endloop
  endfacet
  facet normal 0 0 1
    outer loop
      vertex 20 80 3
      vertex 6.80374 51.2665 3
      vertex 7.09345 51.0268 3
    endloop
  endfacet
  facet normal 0 0 1
    outer loop
      vertex 20 80 3
      vertex 6.46352 51.4266 3
      vertex 6.80374 51.2665 3
    endloop
  endfacet
  facet normal 0 0 1
    outer loop
      vertex 20 80 3
      vertex 6.09418 51.497 3
      vertex 6.46352 51.4266 3
    endloop
  endfacet
  facet normal 0 0 1
    outer loop
      vertex 20 80 3
      vertex 5.71893 51.4734 3
      vertex 6.09418 51.497 3
    endloop
  endfacet
  facet normal 0 0 1
    outer loop
      vertex 20 80 3
      vertex 5.36133 51.3572 3
      vertex 5.71893 51.4734 3
    endloop
  endfacet
  facet normal 0 0 1
    outer loop
      vertex 3 97 3
      vertex 5.36133 51.3572 3
      vertex 20 80 3
    endloop
  endfacet
  facet normal 0 0 1
    outer loop
      vertex 5.36133 51.3572 3
      vertex 3 97 3
      vertex 5.04386 51.1558 3
    endloop
  endfacet
  facet normal 0 0 1
    outer loop
      vertex 5.04386 51.1558 3
      vertex 3 97 3
      vertex 4.78647 50.8817 3
    endloop
  endfacet
  facet normal 0 0 1
    outer loop
      vertex 3 31.2843 3
      vertex 4.51183 50.188 3
      vertex 3 97 3
    endloop
  endfacet
  facet normal 0 0 1
    outer loop
      vertex 4.60534 50.5522 3
      vertex 3 97 3
      vertex 4.51183 50.188 3
    endloop
  endfacet
  facet normal 0 0 1
    outer loop
      vertex 4.78647 50.8817 3
      vertex 3 97 3
      vertex 4.60534 50.5522 3
    endloop
  endfacet
  facet normal 0 0 1
    outer loop
      vertex 80 20 3
      vertex 31.2843 3 3
      vertex 97 3 3
    endloop
  endfacet
  facet normal -0 0 1
    outer loop
      vertex 20 20 3
      vertex 31.2843 3 3
      vertex 80 20 3
    endloop
  endfacet
  facet normal -0 0 1
    outer loop
      vertex 7.45287 49.627 3
      vertex 20 20 3
      vertex 7.5 50 3
    endloop
  endfacet
  facet normal -0 0 1
    outer loop
      vertex 7.31446 49.2774 3
      vertex 20 20 3
      vertex 7.45287 49.627 3
    endloop
  endfacet
  facet normal -0 0 1
    outer loop
      vertex 7.09345 48.9732 3
      vertex 20 20 3
      vertex 7.31446 49.2774 3
    endloop
  endfacet
  facet normal 0 0 1
    outer loop
      vertex 3 31.2843 3
      vertex 7.09345 48.9732 3
      vertex 6.80374 48.7335 3
    endloop
  endfacet
  facet normal 0 0 1
    outer loop
      vertex 3 31.2843 3
      vertex 6.80374 48.7335 3
      vertex 6.46352 48.5734 3
    endloop
  endfacet
  facet normal 0 0 1
    outer loop
      vertex 3 31.2843 3
      vertex 6.46352 48.5734 3
      vertex 6.09418 48.503 3
    endloop
  endfacet
  facet normal 0 0 1
    outer loop
      vertex 3 31.2843 3
      vertex 6.09418 48.503 3
      vertex 5.71893 48.5266 3
    endloop
  endfacet
  facet normal 0 0 1
    outer loop
      vertex 3 31.2843 3
      vertex 5.71893 48.5266 3
      vertex 5.36133 48.6428 3
    endloop
  endfacet
  facet normal 0 0 1
    outer loop
      vertex 3 31.2843 3
      vertex 5.36133 48.6428 3
      vertex 5.04386 48.8442 3
    endloop
  endfacet
  facet normal 0 0 1
    outer loop
      vertex 3 31.2843 3
      vertex 5.04386 48.8442 3
      vertex 4.78647 49.1183 3
    endloop
  endfacet
  facet normal 0 0 1
    outer loop
      vertex 3 31.2843 3
      vertex 4.78647 49.1183 3
      vertex 4.60534 49.4478 3
    endloop
  endfacet
  facet normal 0 0 1
    outer loop
      vertex 20 20 3
      vertex 3 31.2843 3
      vertex 31.2843 3 3
    endloop
  endfacet
  facet normal 0 0 1
    outer loop
      vertex 7.09345 48.9732 3
      vertex 3 31.2843 3
      vertex 20 20 3
    endloop
  endfacet
  facet normal 0 0 1
    outer loop
      vertex 4.51183 49.812 3
      vertex 3 31.2843 3
      vertex 4.60534 49.4478 3
    endloop
  endfacet
  facet normal 0 0 1
    outer loop
      vertex 4.51183 50.188 3
      vertex 3 31.2843 3
      vertex 4.51183 49.812 3
    endloop
  endfacet
  facet normal 0 1 -0
    outer loop
      vertex 97 3 3
      vertex 31.2843 3 10
      vertex 97 3 10
    endloop
  endfacet
  facet normal 0 1 0
    outer loop
      vertex 31.2843 3 10
      vertex 97 3 3
      vertex 31.2843 3 3
    endloop
  endfacet
  facet normal 0.707107 0.707107 0
    outer loop
      vertex 31.2843 3 10
      vertex 3 31.2843 3
      vertex 3 31.2843 10
    endloop
  endfacet
  facet normal 0.707107 0.707107 0
    outer loop
      vertex 3 31.2843 3
      vertex 31.2843 3 10
      vertex 31.2843 3 3
    endloop
  endfacet
  facet normal -1 0 0
    outer loop
      vertex 0 97.5 0
      vertex 0 100 10
      vertex 0 100 0
    endloop
  endfacet
  facet normal -1 -0 0
    outer loop
      vertex 0 100 10
      vertex 0 97.5 0
      vertex 0 97.5 10
    endloop
  endfacet
  facet normal -1 0 0
    outer loop
      vertex 0 28.2843 0
      vertex 0 92.5 10
      vertex 0 92.5 0
    endloop
  endfacet
  facet normal -1 -0 0
    outer loop
      vertex 0 92.5 10
      vertex 0 28.2843 0
      vertex 0 28.2843 10
    endloop
  endfacet
  facet normal 0 0 1
    outer loop
      vertex 3 97 10
      vertex 2.5 95 10
      vertex 3 31.2843 10
    endloop
  endfacet
  facet normal 0 0 1
    outer loop
      vertex 3 97 10
      vertex 1.76777 96.7678 10
      vertex 2.5 95 10
    endloop
  endfacet
  facet normal 0 0 1
    outer loop
      vertex 0 100 10
      vertex 1.76777 96.7678 10
      vertex 3 97 10
    endloop
  endfacet
  facet normal 0 0 1
    outer loop
      vertex 1.76777 96.7678 10
      vertex 0 100 10
      vertex 0 97.5 10
    endloop
  endfacet
  facet normal -0 0 1
    outer loop
      vertex 96.7678 1.76777 10
      vertex 100 0 10
      vertex 97 3 10
    endloop
  endfacet
  facet normal 0 0 1
    outer loop
      vertex 100 0 10
      vertex 96.7678 1.76777 10
      vertex 97.5 0 10
    endloop
  endfacet
  facet normal 0 0 1
    outer loop
      vertex 97 3 10
      vertex 95 2.5 10
      vertex 96.7678 1.76777 10
    endloop
  endfacet
  facet normal -0 0 1
    outer loop
      vertex 31.2843 3 10
      vertex 95 2.5 10
      vertex 97 3 10
    endloop
  endfacet
  facet normal 0 0 1
    outer loop
      vertex 31.2843 3 10
      vertex 93.2322 1.76777 10
      vertex 95 2.5 10
    endloop
  endfacet
  facet normal 0 0 1
    outer loop
      vertex 31.2843 3 10
      vertex 92.5 0 10
      vertex 93.2322 1.76777 10
    endloop
  endfacet
  facet normal 0 0 1
    outer loop
      vertex 31.2843 3 10
      vertex 28.2843 0 10
      vertex 92.5 0 10
    endloop
  endfacet
  facet normal 0 0 1
    outer loop
      vertex 3 31.2843 10
      vertex 28.2843 0 10
      vertex 31.2843 3 10
    endloop
  endfacet
  facet normal -0 0 1
    outer loop
      vertex 1.76777 93.2322 10
      vertex 3 31.2843 10
      vertex 2.5 95 10
    endloop
  endfacet
  facet normal -0 0 1
    outer loop
      vertex 0 92.5 10
      vertex 3 31.2843 10
      vertex 1.76777 93.2322 10
    endloop
  endfacet
  facet normal 0 0 1
    outer loop
      vertex 3 31.2843 10
      vertex 0 28.2843 10
      vertex 28.2843 0 10
    endloop
  endfacet
  facet normal 0 0 1
    outer loop
      vertex 0 28.2843 10
      vertex 3 31.2843 10
      vertex 0 92.5 10
    endloop
  endfacet
  facet normal 0 0 -1
    outer loop
      vertex -1.76777 93.2322 0
      vertex 0 97.5 0
      vertex 0 92.5 0
    endloop
  endfacet
  facet normal 0 0 -1
    outer loop
      vertex -1.76777 93.2322 0
      vertex -1.76777 96.7678 0
      vertex 0 97.5 0
    endloop
  endfacet
  facet normal 0 -0 -1
    outer loop
      vertex -1.76777 96.7678 0
      vertex -1.76777 93.2322 0
      vertex -2.5 95 0
    endloop
  endfacet
  facet normal 0 0 -1
    outer loop
      vertex 7.45287 50.373 0
      vertex 20 80 0
      vertex 7.5 50 0
    endloop
  endfacet
  facet normal 0 0 -1
    outer loop
      vertex 7.31446 50.7226 0
      vertex 20 80 0
      vertex 7.45287 50.373 0
    endloop
  endfacet
  facet normal 0 0 -1
    outer loop
      vertex 7.09345 51.0268 0
      vertex 20 80 0
      vertex 7.31446 50.7226 0
    endloop
  endfacet
  facet normal 0 0 -1
    outer loop
      vertex 6.80374 51.2665 0
      vertex 20 80 0
      vertex 7.09345 51.0268 0
    endloop
  endfacet
  facet normal 0 0 -1
    outer loop
      vertex 6.46352 51.4266 0
      vertex 20 80 0
      vertex 6.80374 51.2665 0
    endloop
  endfacet
  facet normal 0 0 -1
    outer loop
      vertex 6.09418 51.497 0
      vertex 20 80 0
      vertex 6.46352 51.4266 0
    endloop
  endfacet
  facet normal 0 0 -1
    outer loop
      vertex 5.71893 51.4734 0
      vertex 20 80 0
      vertex 6.09418 51.497 0
    endloop
  endfacet
  facet normal 0 0 -1
    outer loop
      vertex 0 92.5 0
      vertex 5.71893 51.4734 0
      vertex 5.36133 51.3572 0
    endloop
  endfacet
  facet normal 0 0 -1
    outer loop
      vertex 0 92.5 0
      vertex 5.36133 51.3572 0
      vertex 5.04386 51.1558 0
    endloop
  endfacet
  facet normal 0 0 -1
    outer loop
      vertex 0 92.5 0
      vertex 5.04386 51.1558 0
      vertex 4.78647 50.8817 0
    endloop
  endfacet
  facet normal 0 0 -1
    outer loop
      vertex 0 92.5 0
      vertex 4.78647 50.8817 0
      vertex 4.60534 50.5522 0
    endloop
  endfacet
  facet normal 0 0 -1
    outer loop
      vertex 0 92.5 0
      vertex 4.51183 50.188 0
      vertex 0 28.2843 0
    endloop
  endfacet
  facet normal 0 0 -1
    outer loop
      vertex 0 92.5 0
      vertex 4.60534 50.5522 0
      vertex 4.51183 50.188 0
    endloop
  endfacet
  facet normal 0 0 -1
    outer loop
      vertex 5.71893 51.4734 0
      vertex 0 92.5 0
      vertex 20 80 0
    endloop
  endfacet
  facet normal 0 0 -1
    outer loop
      vertex 0 97.5 0
      vertex 20 80 0
      vertex 0 92.5 0
    endloop
  endfacet
  facet normal 0 0 -1
    outer loop
      vertex 20 80 0
      vertex 0 97.5 0
      vertex 0 100 0
    endloop
  endfacet
  facet normal 0 0 -1
    outer loop
      vertex 44.4921 10.416 0
      vertex 43.5591 10.416 0
      vertex 44.4921 13.84 0
    endloop
  endfacet
  facet normal 0 0 -1
    outer loop
      vertex 44.9841 10.416 0
      vertex 45.8481 12.752 0
      vertex 45.9601 10.416 0
    endloop
  endfacet
  facet normal -0 0 -1
    outer loop
      vertex 45.8481 12.752 0
      vertex 44.9841 10.416 0
      vertex 44.9841 13.372 0
    endloop
  endfacet
  facet normal 0 0 -1
    outer loop
      vertex 95 -2.5 0
      vertex 97.5 0 0
      vertex 96.7678 -1.76777 0
    endloop
  endfacet
  facet normal 0 0 -1
    outer loop
      vertex 93.2322 -1.76777 0
      vertex 97.5 0 0
      vertex 95 -2.5 0
    endloop
  endfacet
  facet normal 0 0 -1
    outer loop
      vertex 92.5 0 0
      vertex 97.5 0 0
      vertex 93.2322 -1.76777 0
    endloop
  endfacet
  facet normal 0 0 -1
    outer loop
      vertex 80 20 0
      vertex 97.5 0 0
      vertex 92.5 0 0
    endloop
  endfacet
  facet normal 0 0 -1
    outer loop
      vertex 97.5 0 0
      vertex 80 20 0
      vertex 100 0 0
    endloop
  endfacet
  facet normal 0 0 -1
    outer loop
      vertex 48.413 10 0
      vertex 80 20 0
      vertex 92.5 0 0
    endloop
  endfacet
  facet normal 0 0 -1
    outer loop
      vertex 80 20 0
      vertex 48.413 10 0
      vertex 49.976 13.84 0
    endloop
  endfacet
  facet normal 0 0 -1
    outer loop
      vertex 28.2843 0 0
      vertex 48.413 10 0
      vertex 92.5 0 0
    endloop
  endfacet
  facet normal 0 0 -1
    outer loop
      vertex 45.9601 10.416 0
      vertex 47.875 10 0
      vertex 45.9601 10 0
    endloop
  endfacet
  facet normal -0 0 -1
    outer loop
      vertex 48.413 10 0
      vertex 28.2843 0 0
      vertex 47.875 10 0
    endloop
  endfacet
  facet normal -0 0 -1
    outer loop
      vertex 47.875 10 0
      vertex 28.2843 0 0
      vertex 45.9601 10 0
    endloop
  endfacet
  facet normal -0 0 -1
    outer loop
      vertex 43.5591 10 0
      vertex 28.2843 0 0
      vertex 43.5591 10.416 0
    endloop
  endfacet
  facet normal -0 0 -1
    outer loop
      vertex 45.9601 10 0
      vertex 28.2843 0 0
      vertex 43.5591 10 0
    endloop
  endfacet
  facet normal 0 0 -1
    outer loop
      vertex 49.429 13.84 0
      vertex 80 20 0
      vertex 49.976 13.84 0
    endloop
  endfacet
  facet normal 0 0 -1
    outer loop
      vertex 47.913 11.136 0
      vertex 48.369 11.136 0
      vertex 48.141 10.457 0
    endloop
  endfacet
  facet normal 0 0 -1
    outer loop
      vertex 47.913 11.136 0
      vertex 49.429 13.84 0
      vertex 48.369 11.136 0
    endloop
  endfacet
  facet normal 0 0 -1
    outer loop
      vertex 46.858 13.84 0
      vertex 49.429 13.84 0
      vertex 47.913 11.136 0
    endloop
  endfacet
  facet normal 0 0 -1
    outer loop
      vertex 20 20 0
      vertex 49.429 13.84 0
      vertex 46.858 13.84 0
    endloop
  endfacet
  facet normal 0 0 -1
    outer loop
      vertex 20 20 0
      vertex 46.858 13.84 0
      vertex 46.312 13.84 0
    endloop
  endfacet
  facet normal 0 0 -1
    outer loop
      vertex 45.8481 12.752 0
      vertex 47.875 10 0
      vertex 45.9601 10.416 0
    endloop
  endfacet
  facet normal 0 0 -1
    outer loop
      vertex 47.875 10 0
      vertex 45.8481 12.752 0
      vertex 46.312 13.84 0
    endloop
  endfacet
  facet normal 0 0 -1
    outer loop
      vertex 45.8481 13.214 0
      vertex 46.312 13.84 0
      vertex 45.8481 12.752 0
    endloop
  endfacet
  facet normal 0 0 -1
    outer loop
      vertex 44.9431 13.84 0
      vertex 46.312 13.84 0
      vertex 45.8481 13.214 0
    endloop
  endfacet
  facet normal 0 0 -1
    outer loop
      vertex 20 20 0
      vertex 46.312 13.84 0
      vertex 44.9431 13.84 0
    endloop
  endfacet
  facet normal 0 0 -1
    outer loop
      vertex 20 20 0
      vertex 44.9431 13.84 0
      vertex 44.4921 13.84 0
    endloop
  endfacet
  facet normal 0 0 -1
    outer loop
      vertex 20 20 0
      vertex 43.5591 10.416 0
      vertex 28.2843 0 0
    endloop
  endfacet
  facet normal 0 0 -1
    outer loop
      vertex 49.429 13.84 0
      vertex 20 20 0
      vertex 80 20 0
    endloop
  endfacet
  facet normal 0 0 -1
    outer loop
      vertex 43.5591 10.416 0
      vertex 20 20 0
      vertex 44.4921 13.84 0
    endloop
  endfacet
  facet normal 0 0 -1
    outer loop
      vertex 20 20 0
      vertex 7.5 50 0
      vertex 20 80 0
    endloop
  endfacet
  facet normal 0 0 -1
    outer loop
      vertex 0 28.2843 0
      vertex 20 20 0
      vertex 28.2843 0 0
    endloop
  endfacet
  facet normal 0 0 -1
    outer loop
      vertex 20 20 0
      vertex 7.45287 49.627 0
      vertex 7.5 50 0
    endloop
  endfacet
  facet normal 0 0 -1
    outer loop
      vertex 20 20 0
      vertex 7.31446 49.2774 0
      vertex 7.45287 49.627 0
    endloop
  endfacet
  facet normal 0 0 -1
    outer loop
      vertex 20 20 0
      vertex 7.09345 48.9732 0
      vertex 7.31446 49.2774 0
    endloop
  endfacet
  facet normal 0 -0 -1
    outer loop
      vertex 6.80374 48.7335 0
      vertex 20 20 0
      vertex 0 28.2843 0
    endloop
  endfacet
  facet normal 0 0 -1
    outer loop
      vertex 20 20 0
      vertex 6.80374 48.7335 0
      vertex 7.09345 48.9732 0
    endloop
  endfacet
  facet normal 0 0 -1
    outer loop
      vertex 6.80374 48.7335 0
      vertex 0 28.2843 0
      vertex 6.46352 48.5734 0
    endloop
  endfacet
  facet normal 0 0 -1
    outer loop
      vertex 6.46352 48.5734 0
      vertex 0 28.2843 0
      vertex 6.09418 48.503 0
    endloop
  endfacet
  facet normal -0 0 -1
    outer loop
      vertex 6.09418 48.503 0
      vertex 0 28.2843 0
      vertex 5.71893 48.5266 0
    endloop
  endfacet
  facet normal -0 0 -1
    outer loop
      vertex 5.71893 48.5266 0
      vertex 0 28.2843 0
      vertex 5.36133 48.6428 0
    endloop
  endfacet
  facet normal -0 0 -1
    outer loop
      vertex 5.36133 48.6428 0
      vertex 0 28.2843 0
      vertex 5.04386 48.8442 0
    endloop
  endfacet
  facet normal -0 0 -1
    outer loop
      vertex 5.04386 48.8442 0
      vertex 0 28.2843 0
      vertex 4.78647 49.1183 0
    endloop
  endfacet
  facet normal -0 0 -1
    outer loop
      vertex 4.51183 49.812 0
      vertex 0 28.2843 0
      vertex 4.51183 50.188 0
    endloop
  endfacet
  facet normal -0 0 -1
    outer loop
      vertex 4.60534 49.4478 0
      vertex 0 28.2843 0
      vertex 4.51183 49.812 0
    endloop
  endfacet
  facet normal -0 0 -1
    outer loop
      vertex 4.78647 49.1183 0
      vertex 0 28.2843 0
      vertex 4.60534 49.4478 0
    endloop
  endfacet
  facet normal 0 -1 0
    outer loop
      vertex 97.5 0 0
      vertex 100 0 10
      vertex 97.5 0 10
    endloop
  endfacet
  facet normal 0 -1 -0
    outer loop
      vertex 100 0 10
      vertex 97.5 0 0
      vertex 100 0 0
    endloop
  endfacet
  facet normal 0 -1 0
    outer loop
      vertex 28.2843 0 0
      vertex 92.5 0 10
      vertex 28.2843 0 10
    endloop
  endfacet
  facet normal 0 -1 -0
    outer loop
      vertex 92.5 0 10
      vertex 28.2843 0 0
      vertex 92.5 0 0
    endloop
  endfacet
  facet normal 1 -0 0
    outer loop
      vertex 20 20 3
      vertex 20 80 0
      vertex 20 80 3
    endloop
  endfacet
  facet normal 1 0 0
    outer loop
      vertex 20 80 0
      vertex 20 20 3
      vertex 20 20 0
    endloop
  endfacet
  facet normal 0 1 -0
    outer loop
      vertex 80 20 0
      vertex 20 20 3
      vertex 80 20 3
    endloop
  endfacet
  facet normal 0 1 0
    outer loop
      vertex 20 20 3
      vertex 80 20 0
      vertex 20 20 0
    endloop
  endfacet
  facet normal 0 0 -1
    outer loop
      vertex 48.369 11.136 1
      vertex 49.976 13.84 1
      vertex 48.413 10 1
    endloop
  endfacet
  facet normal -0 0 -1
    outer loop
      vertex 49.976 13.84 1
      vertex 48.369 11.136 1
      vertex 49.429 13.84 1
    endloop
  endfacet
  facet normal 0 0 -1
    outer loop
      vertex 48.413 10 1
      vertex 48.141 10.457 1
      vertex 48.369 11.136 1
    endloop
  endfacet
  facet normal 0 0 -1
    outer loop
      vertex 47.875 10 1
      vertex 48.141 10.457 1
      vertex 48.413 10 1
    endloop
  endfacet
  facet normal 0 0 -1
    outer loop
      vertex 47.875 10 1
      vertex 47.913 11.136 1
      vertex 48.141 10.457 1
    endloop
  endfacet
  facet normal 0 0 -1
    outer loop
      vertex 46.312 13.84 1
      vertex 47.913 11.136 1
      vertex 47.875 10 1
    endloop
  endfacet
  facet normal 0 0 -1
    outer loop
      vertex 47.913 11.136 1
      vertex 46.312 13.84 1
      vertex 46.858 13.84 1
    endloop
  endfacet
  facet normal 0 0 -1
    outer loop
      vertex 45.9601 10 1
      vertex 44.9841 10.416 1
      vertex 45.9601 10.416 1
    endloop
  endfacet
  facet normal 0 0 -1
    outer loop
      vertex 44.4921 10.416 1
      vertex 44.9841 13.372 1
      vertex 44.9841 10.416 1
    endloop
  endfacet
  facet normal 0 0 -1
    outer loop
      vertex 44.4921 13.84 1
      vertex 44.9841 13.372 1
      vertex 44.4921 10.416 1
    endloop
  endfacet
  facet normal 0 0 -1
    outer loop
      vertex 43.5591 10 1
      vertex 44.9841 10.416 1
      vertex 45.9601 10 1
    endloop
  endfacet
  facet normal -0 0 -1
    outer loop
      vertex 44.9841 10.416 1
      vertex 43.5591 10 1
      vertex 44.4921 10.416 1
    endloop
  endfacet
  facet normal -0 0 -1
    outer loop
      vertex 44.4921 10.416 1
      vertex 43.5591 10 1
      vertex 43.5591 10.416 1
    endloop
  endfacet
  facet normal 0 0 -1
    outer loop
      vertex 44.9841 13.372 1
      vertex 45.8481 13.214 1
      vertex 45.8481 12.752 1
    endloop
  endfacet
  facet normal 0 0 -1
    outer loop
      vertex 45.8481 13.214 1
      vertex 44.9841 13.372 1
      vertex 44.9431 13.84 1
    endloop
  endfacet
  facet normal 0 0 -1
    outer loop
      vertex 44.9841 13.372 1
      vertex 44.4921 13.84 1
      vertex 44.9431 13.84 1
    endloop
  endfacet
  facet normal 0 -1 0
    outer loop
      vertex 46.312 13.84 0
      vertex 46.858 13.84 1
      vertex 46.312 13.84 1
    endloop
  endfacet
  facet normal 0 -1 -0
    outer loop
      vertex 46.858 13.84 1
      vertex 46.312 13.84 0
      vertex 46.858 13.84 0
    endloop
  endfacet
  facet normal -0.931603 -0.363478 0
    outer loop
      vertex 47.913 11.136 0
      vertex 46.858 13.84 1
      vertex 46.858 13.84 0
    endloop
  endfacet
  facet normal -0.931603 -0.363478 0
    outer loop
      vertex 46.858 13.84 1
      vertex 47.913 11.136 0
      vertex 47.913 11.136 1
    endloop
  endfacet
  facet normal -0.947984 -0.318317 0
    outer loop
      vertex 48.141 10.457 0
      vertex 47.913 11.136 1
      vertex 47.913 11.136 0
    endloop
  endfacet
  facet normal -0.947984 -0.318317 0
    outer loop
      vertex 47.913 11.136 1
      vertex 48.141 10.457 0
      vertex 48.141 10.457 1
    endloop
  endfacet
  facet normal 0.947984 -0.318317 0
    outer loop
      vertex 48.141 10.457 1
      vertex 48.369 11.136 0
      vertex 48.369 11.136 1
    endloop
  endfacet
  facet normal 0.947984 -0.318317 0
    outer loop
      vertex 48.369 11.136 0
      vertex 48.141 10.457 1
      vertex 48.141 10.457 0
    endloop
  endfacet
  facet normal 0.93102 -0.364969 0
    outer loop
      vertex 48.369 11.136 1
      vertex 49.429 13.84 0
      vertex 49.429 13.84 1
    endloop
  endfacet
  facet normal 0.93102 -0.364969 0
    outer loop
      vertex 49.429 13.84 0
      vertex 48.369 11.136 1
      vertex 48.369 11.136 0
    endloop
  endfacet
  facet normal 0 -1 0
    outer loop
      vertex 49.429 13.84 0
      vertex 49.976 13.84 1
      vertex 49.429 13.84 1
    endloop
  endfacet
  facet normal 0 -1 -0
    outer loop
      vertex 49.976 13.84 1
      vertex 49.429 13.84 0
      vertex 49.976 13.84 0
    endloop
  endfacet
  facet normal -0.926214 0.376999 0
    outer loop
      vertex 48.413 10 0
      vertex 49.976 13.84 1
      vertex 49.976 13.84 0
    endloop
  endfacet
  facet normal -0.926214 0.376999 0
    outer loop
      vertex 49.976 13.84 1
      vertex 48.413 10 0
      vertex 48.413 10 1
    endloop
  endfacet
  facet normal 0 1 -0
    outer loop
      vertex 48.413 10 0
      vertex 47.875 10 1
      vertex 48.413 10 1
    endloop
  endfacet
  facet normal 0 1 0
    outer loop
      vertex 47.875 10 1
      vertex 48.413 10 0
      vertex 47.875 10 0
    endloop
  endfacet
  facet normal 0.926215 0.376996 0
    outer loop
      vertex 47.875 10 1
      vertex 46.312 13.84 0
      vertex 46.312 13.84 1
    endloop
  endfacet
  facet normal 0.926215 0.376996 0
    outer loop
      vertex 46.312 13.84 0
      vertex 47.875 10 1
      vertex 47.875 10 0
    endloop
  endfacet
  facet normal 0 -1 0
    outer loop
      vertex 43.5591 10.416 0
      vertex 44.4921 10.416 1
      vertex 43.5591 10.416 1
    endloop
  endfacet
  facet normal 0 -1 -0
    outer loop
      vertex 44.4921 10.416 1
      vertex 43.5591 10.416 0
      vertex 44.4921 10.416 0
    endloop
  endfacet
  facet normal 1 -0 0
    outer loop
      vertex 44.4921 10.416 1
      vertex 44.4921 13.84 0
      vertex 44.4921 13.84 1
    endloop
  endfacet
  facet normal 1 0 0
    outer loop
      vertex 44.4921 13.84 0
      vertex 44.4921 10.416 1
      vertex 44.4921 10.416 0
    endloop
  endfacet
  facet normal 0 -1 0
    outer loop
      vertex 44.4921 13.84 0
      vertex 44.9431 13.84 1
      vertex 44.4921 13.84 1
    endloop
  endfacet
  facet normal 0 -1 -0
    outer loop
      vertex 44.9431 13.84 1
      vertex 44.4921 13.84 0
      vertex 44.9431 13.84 0
    endloop
  endfacet
  facet normal -0.568884 -0.822418 0
    outer loop
      vertex 44.9431 13.84 0
      vertex 45.8481 13.214 1
      vertex 44.9431 13.84 1
    endloop
  endfacet
  facet normal -0.568884 -0.822418 -0
    outer loop
      vertex 45.8481 13.214 1
      vertex 44.9431 13.84 0
      vertex 45.8481 13.214 0
    endloop
  endfacet
  facet normal -1 0 0
    outer loop
      vertex 45.8481 12.752 0
      vertex 45.8481 13.214 1
      vertex 45.8481 13.214 0
    endloop
  endfacet
  facet normal -1 -0 0
    outer loop
      vertex 45.8481 13.214 1
      vertex 45.8481 12.752 0
      vertex 45.8481 12.752 1
    endloop
  endfacet
  facet normal 0.583014 0.812462 -0
    outer loop
      vertex 45.8481 12.752 0
      vertex 44.9841 13.372 1
      vertex 45.8481 12.752 1
    endloop
  endfacet
  facet normal 0.583014 0.812462 0
    outer loop
      vertex 44.9841 13.372 1
      vertex 45.8481 12.752 0
      vertex 44.9841 13.372 0
    endloop
  endfacet
  facet normal -1 0 0
    outer loop
      vertex 44.9841 10.416 0
      vertex 44.9841 13.372 1
      vertex 44.9841 13.372 0
    endloop
  endfacet
  facet normal -1 -0 0
    outer loop
      vertex 44.9841 13.372 1
      vertex 44.9841 10.416 0
      vertex 44.9841 10.416 1
    endloop
  endfacet
  facet normal 0 -1 0
    outer loop
      vertex 44.9841 10.416 0
      vertex 45.9601 10.416 1
      vertex 44.9841 10.416 1
    endloop
  endfacet
  facet normal 0 -1 -0
    outer loop
      vertex 45.9601 10.416 1
      vertex 44.9841 10.416 0
      vertex 45.9601 10.416 0
    endloop
  endfacet
  facet normal -1 0 0
    outer loop
      vertex 45.9601 10 0
      vertex 45.9601 10.416 1
      vertex 45.9601 10.416 0
    endloop
  endfacet
  facet normal -1 -0 0
    outer loop
      vertex 45.9601 10.416 1
      vertex 45.9601 10 0
      vertex 45.9601 10 1
    endloop
  endfacet
  facet normal 0 1 -0
    outer loop
      vertex 45.9601 10 0
      vertex 43.5591 10 1
      vertex 45.9601 10 1
    endloop
  endfacet
  facet normal 0 1 0
    outer loop
      vertex 43.5591 10 1
      vertex 45.9601 10 0
      vertex 43.5591 10 0
    endloop
  endfacet
  facet normal 1 -0 0
    outer loop
      vertex 43.5591 10 1
      vertex 43.5591 10.416 0
      vertex 43.5591 10.416 1
    endloop
  endfacet
  facet normal 1 0 0
    outer loop
      vertex 43.5591 10.416 0
      vertex 43.5591 10 1
      vertex 43.5591 10 0
    endloop
  endfacet
  facet normal -0.707107 -0.707107 0
    outer loop
      vertex 28.2843 0 0
      vertex 0 28.2843 10
      vertex 0 28.2843 0
    endloop
  endfacet
  facet normal -0.707107 -0.707107 0
    outer loop
      vertex 0 28.2843 10
      vertex 28.2843 0 0
      vertex 28.2843 0 10
    endloop
  endfacet
  facet normal 0.707107 0.707107 0
    outer loop
      vertex 97 3 10
      vertex 100 0 10
      vertex 97 3 3
    endloop
  endfacet
  facet normal 0.707107 0.707107 0
    outer loop
      vertex 97 3 3
      vertex 80 20 0
      vertex 80 20 3
    endloop
  endfacet
  facet normal 0.707107 0.707107 0
    outer loop
      vertex 97 3 3
      vertex 100 0 0
      vertex 80 20 0
    endloop
  endfacet
  facet normal 0.707107 0.707107 -0
    outer loop
      vertex 100 0 0
      vertex 97 3 3
      vertex 100 0 10
    endloop
  endfacet
  facet normal 0.707107 0.707107 -0
    outer loop
      vertex 3 97 3
      vertex 0 100 10
      vertex 3 97 10
    endloop
  endfacet
  facet normal 0.707107 0.707107 0
    outer loop
      vertex 0 100 10
      vertex 3 97 3
      vertex 0 100 0
    endloop
  endfacet
  facet normal 0.707107 0.707107 -0
    outer loop
      vertex 20 80 0
      vertex 3 97 3
      vertex 20 80 3
    endloop
  endfacet
  facet normal 0.707107 0.707107 0
    outer loop
      vertex 3 97 3
      vertex 20 80 0
      vertex 0 100 0
    endloop
  endfacet
  facet normal -0.992115 -0.125334 0
    outer loop
      vertex 7.5 50 0
      vertex 7.45287 50.373 3
      vertex 7.45287 50.373 0
    endloop
  endfacet
  facet normal -0.992115 -0.125334 0
    outer loop
      vertex 7.45287 50.373 3
      vertex 7.5 50 0
      vertex 7.5 50 3
    endloop
  endfacet
  facet normal 1 -0 0
    outer loop
      vertex 4.51183 49.812 3
      vertex 4.51183 50.188 0
      vertex 4.51183 50.188 3
    endloop
  endfacet
  facet normal 1 0 0
    outer loop
      vertex 4.51183 50.188 0
      vertex 4.51183 49.812 3
      vertex 4.51183 49.812 0
    endloop
  endfacet
  facet normal 0.0627904 -0.998027 0
    outer loop
      vertex 5.71893 51.4734 0
      vertex 6.09418 51.497 3
      vertex 5.71893 51.4734 3
    endloop
  endfacet
  facet normal 0.0627904 -0.998027 0
    outer loop
      vertex 6.09418 51.497 3
      vertex 5.71893 51.4734 0
      vertex 6.09418 51.497 0
    endloop
  endfacet
  facet normal -0.637422 -0.770515 0
    outer loop
      vertex 6.80374 51.2665 0
      vertex 7.09345 51.0268 3
      vertex 6.80374 51.2665 3
    endloop
  endfacet
  facet normal -0.637422 -0.770515 -0
    outer loop
      vertex 7.09345 51.0268 3
      vertex 6.80374 51.2665 0
      vertex 7.09345 51.0268 0
    endloop
  endfacet
  facet normal -0.929776 -0.368125 0
    outer loop
      vertex 7.45287 50.373 0
      vertex 7.31446 50.7226 3
      vertex 7.31446 50.7226 0
    endloop
  endfacet
  facet normal -0.929776 -0.368125 0
    outer loop
      vertex 7.31446 50.7226 3
      vertex 7.45287 50.373 0
      vertex 7.45287 50.373 3
    endloop
  endfacet
  facet normal -0.425776 -0.904829 0
    outer loop
      vertex 6.46352 51.4266 0
      vertex 6.80374 51.2665 3
      vertex 6.46352 51.4266 3
    endloop
  endfacet
  facet normal -0.425776 -0.904829 -0
    outer loop
      vertex 6.80374 51.2665 3
      vertex 6.46352 51.4266 0
      vertex 6.80374 51.2665 0
    endloop
  endfacet
  facet normal 0.728971 -0.684544 0
    outer loop
      vertex 4.78647 50.8817 3
      vertex 5.04386 51.1558 0
      vertex 5.04386 51.1558 3
    endloop
  endfacet
  facet normal 0.728971 -0.684544 0
    outer loop
      vertex 5.04386 51.1558 0
      vertex 4.78647 50.8817 3
      vertex 4.78647 50.8817 0
    endloop
  endfacet
  facet normal 0.535824 -0.84433 0
    outer loop
      vertex 5.04386 51.1558 0
      vertex 5.36133 51.3572 3
      vertex 5.04386 51.1558 3
    endloop
  endfacet
  facet normal 0.535824 -0.84433 0
    outer loop
      vertex 5.36133 51.3572 3
      vertex 5.04386 51.1558 0
      vertex 5.36133 51.3572 0
    endloop
  endfacet
  facet normal -0.809014 0.587789 0
    outer loop
      vertex 7.09345 48.9732 0
      vertex 7.31446 49.2774 3
      vertex 7.31446 49.2774 0
    endloop
  endfacet
  facet normal -0.809014 0.587789 0
    outer loop
      vertex 7.31446 49.2774 3
      vertex 7.09345 48.9732 0
      vertex 7.09345 48.9732 3
    endloop
  endfacet
  facet normal -0.929778 0.368122 0
    outer loop
      vertex 7.31446 49.2774 0
      vertex 7.45287 49.627 3
      vertex 7.45287 49.627 0
    endloop
  endfacet
  facet normal -0.929778 0.368122 0
    outer loop
      vertex 7.45287 49.627 3
      vertex 7.31446 49.2774 0
      vertex 7.31446 49.2774 3
    endloop
  endfacet
  facet normal -0.809018 -0.587784 0
    outer loop
      vertex 7.31446 50.7226 0
      vertex 7.09345 51.0268 3
      vertex 7.09345 51.0268 0
    endloop
  endfacet
  facet normal -0.809018 -0.587784 0
    outer loop
      vertex 7.09345 51.0268 3
      vertex 7.31446 50.7226 0
      vertex 7.31446 50.7226 3
    endloop
  endfacet
  facet normal -0.187387 -0.982286 0
    outer loop
      vertex 6.09418 51.497 0
      vertex 6.46352 51.4266 3
      vertex 6.09418 51.497 3
    endloop
  endfacet
  facet normal -0.187387 -0.982286 -0
    outer loop
      vertex 6.46352 51.4266 3
      vertex 6.09418 51.497 0
      vertex 6.46352 51.4266 0
    endloop
  endfacet
  facet normal 0.876307 -0.481754 0
    outer loop
      vertex 4.60534 50.5522 3
      vertex 4.78647 50.8817 0
      vertex 4.78647 50.8817 3
    endloop
  endfacet
  facet normal 0.876307 -0.481754 0
    outer loop
      vertex 4.78647 50.8817 0
      vertex 4.60534 50.5522 3
      vertex 4.60534 50.5522 0
    endloop
  endfacet
  facet normal 0.968583 -0.248692 0
    outer loop
      vertex 4.51183 50.188 3
      vertex 4.60534 50.5522 0
      vertex 4.60534 50.5522 3
    endloop
  endfacet
  facet normal 0.968583 -0.248692 0
    outer loop
      vertex 4.60534 50.5522 0
      vertex 4.51183 50.188 3
      vertex 4.51183 50.188 0
    endloop
  endfacet
  facet normal 0.309021 -0.951055 0
    outer loop
      vertex 5.36133 51.3572 0
      vertex 5.71893 51.4734 3
      vertex 5.36133 51.3572 3
    endloop
  endfacet
  facet normal 0.309021 -0.951055 0
    outer loop
      vertex 5.71893 51.4734 3
      vertex 5.36133 51.3572 0
      vertex 5.71893 51.4734 0
    endloop
  endfacet
  facet normal -0.992115 0.125334 0
    outer loop
      vertex 7.45287 49.627 0
      vertex 7.5 50 3
      vertex 7.5 50 0
    endloop
  endfacet
  facet normal -0.992115 0.125334 0
    outer loop
      vertex 7.5 50 3
      vertex 7.45287 49.627 0
      vertex 7.45287 49.627 3
    endloop
  endfacet
  facet normal -0.187377 0.982288 0
    outer loop
      vertex 6.46352 48.5734 0
      vertex 6.09418 48.503 3
      vertex 6.46352 48.5734 3
    endloop
  endfacet
  facet normal -0.187377 0.982288 0
    outer loop
      vertex 6.09418 48.503 3
      vertex 6.46352 48.5734 0
      vertex 6.09418 48.503 0
    endloop
  endfacet
  facet normal -0.637422 0.770515 0
    outer loop
      vertex 7.09345 48.9732 0
      vertex 6.80374 48.7335 3
      vertex 7.09345 48.9732 3
    endloop
  endfacet
  facet normal -0.637422 0.770515 0
    outer loop
      vertex 6.80374 48.7335 3
      vertex 7.09345 48.9732 0
      vertex 6.80374 48.7335 0
    endloop
  endfacet
  facet normal 0.535824 0.84433 -0
    outer loop
      vertex 5.36133 48.6428 0
      vertex 5.04386 48.8442 3
      vertex 5.36133 48.6428 3
    endloop
  endfacet
  facet normal 0.535824 0.84433 0
    outer loop
      vertex 5.04386 48.8442 3
      vertex 5.36133 48.6428 0
      vertex 5.04386 48.8442 0
    endloop
  endfacet
  facet normal 0.0627904 0.998027 -0
    outer loop
      vertex 6.09418 48.503 0
      vertex 5.71893 48.5266 3
      vertex 6.09418 48.503 3
    endloop
  endfacet
  facet normal 0.0627904 0.998027 0
    outer loop
      vertex 5.71893 48.5266 3
      vertex 6.09418 48.503 0
      vertex 5.71893 48.5266 0
    endloop
  endfacet
  facet normal 0.728967 0.684549 0
    outer loop
      vertex 5.04386 48.8442 3
      vertex 4.78647 49.1183 0
      vertex 4.78647 49.1183 3
    endloop
  endfacet
  facet normal 0.728967 0.684549 0
    outer loop
      vertex 4.78647 49.1183 0
      vertex 5.04386 48.8442 3
      vertex 5.04386 48.8442 0
    endloop
  endfacet
  facet normal 0.968583 0.248692 0
    outer loop
      vertex 4.60534 49.4478 3
      vertex 4.51183 49.812 0
      vertex 4.51183 49.812 3
    endloop
  endfacet
  facet normal 0.968583 0.248692 0
    outer loop
      vertex 4.51183 49.812 0
      vertex 4.60534 49.4478 3
      vertex 4.60534 49.4478 0
    endloop
  endfacet
  facet normal -0.425784 0.904825 0
    outer loop
      vertex 6.80374 48.7335 0
      vertex 6.46352 48.5734 3
      vertex 6.80374 48.7335 3
    endloop
  endfacet
  facet normal -0.425784 0.904825 0
    outer loop
      vertex 6.46352 48.5734 3
      vertex 6.80374 48.7335 0
      vertex 6.46352 48.5734 0
    endloop
  endfacet
  facet normal 0.309021 0.951055 -0
    outer loop
      vertex 5.71893 48.5266 0
      vertex 5.36133 48.6428 3
      vertex 5.71893 48.5266 3
    endloop
  endfacet
  facet normal 0.309021 0.951055 0
    outer loop
      vertex 5.36133 48.6428 3
      vertex 5.71893 48.5266 0
      vertex 5.36133 48.6428 0
    endloop
  endfacet
  facet normal 0.876309 0.481749 0
    outer loop
      vertex 4.78647 49.1183 3
      vertex 4.60534 49.4478 0
      vertex 4.60534 49.4478 3
    endloop
  endfacet
  facet normal 0.876309 0.481749 0
    outer loop
      vertex 4.60534 49.4478 0
      vertex 4.78647 49.1183 3
      vertex 4.78647 49.1183 0
    endloop
  endfacet
  facet normal 0.92388 0.382683 0
    outer loop
      vertex 2.5 95 11
      vertex 1.76777 96.7678 10
      vertex 1.76777 96.7678 11
    endloop
  endfacet
  facet normal 0.92388 0.382683 0
    outer loop
      vertex 1.76777 96.7678 10
      vertex 2.5 95 11
      vertex 2.5 95 10
    endloop
  endfacet
  facet normal -0.382683 0.92388 0
    outer loop
      vertex 0 97.5 10
      vertex -1.76777 96.7678 11
      vertex 0 97.5 11
    endloop
  endfacet
  facet normal -0.382683 0.92388 0
    outer loop
      vertex -1.76777 96.7678 0
      vertex 0 97.5 10
      vertex 0 97.5 0
    endloop
  endfacet
  facet normal -0.382683 0.92388 0
    outer loop
      vertex 0 97.5 10
      vertex -1.76777 96.7678 0
      vertex -1.76777 96.7678 11
    endloop
  endfacet
  facet normal 0.382683 0.92388 -0
    outer loop
      vertex 1.76777 96.7678 10
      vertex 0 97.5 11
      vertex 1.76777 96.7678 11
    endloop
  endfacet
  facet normal 0.382683 0.92388 0
    outer loop
      vertex 0 97.5 11
      vertex 1.76777 96.7678 10
      vertex 0 97.5 10
    endloop
  endfacet
  facet normal 0 0 1
    outer loop
      vertex 1.76777 96.7678 11
      vertex 1.76777 93.2322 11
      vertex 2.5 95 11
    endloop
  endfacet
  facet normal 0 0 1
    outer loop
      vertex 0 97.5 11
      vertex 1.76777 93.2322 11
      vertex 1.76777 96.7678 11
    endloop
  endfacet
  facet normal 0 0 1
    outer loop
      vertex 0 97.5 11
      vertex 0 92.5 11
      vertex 1.76777 93.2322 11
    endloop
  endfacet
  facet normal -0 0 1
    outer loop
      vertex -1.76777 96.7678 11
      vertex 0 92.5 11
      vertex 0 97.5 11
    endloop
  endfacet
  facet normal 0 0 1
    outer loop
      vertex -1.76777 96.7678 11
      vertex -1.76777 93.2322 11
      vertex 0 92.5 11
    endloop
  endfacet
  facet normal 0 -0 1
    outer loop
      vertex -1.76777 93.2322 11
      vertex -1.76777 96.7678 11
      vertex -2.5 95 11
    endloop
  endfacet
  facet normal -0.92388 0.382683 0
    outer loop
      vertex -2.5 95 0
      vertex -1.76777 96.7678 11
      vertex -1.76777 96.7678 0
    endloop
  endfacet
  facet normal -0.92388 0.382683 0
    outer loop
      vertex -1.76777 96.7678 11
      vertex -2.5 95 0
      vertex -2.5 95 11
    endloop
  endfacet
  facet normal 0.92388 -0.382683 0
    outer loop
      vertex 1.76777 93.2322 11
      vertex 2.5 95 10
      vertex 2.5 95 11
    endloop
  endfacet
  facet normal 0.92388 -0.382683 0
    outer loop
      vertex 2.5 95 10
      vertex 1.76777 93.2322 11
      vertex 1.76777 93.2322 10
    endloop
  endfacet
  facet normal -0.382683 -0.92388 0
    outer loop
      vertex -1.76777 93.2322 11
      vertex 0 92.5 10
      vertex 0 92.5 11
    endloop
  endfacet
  facet normal -0.382683 -0.92388 0
    outer loop
      vertex -1.76777 93.2322 0
      vertex 0 92.5 10
      vertex -1.76777 93.2322 11
    endloop
  endfacet
  facet normal -0.382683 -0.92388 -0
    outer loop
      vertex 0 92.5 10
      vertex -1.76777 93.2322 0
      vertex 0 92.5 0
    endloop
  endfacet
  facet normal -0.92388 -0.382683 0
    outer loop
      vertex -1.76777 93.2322 0
      vertex -2.5 95 11
      vertex -2.5 95 0
    endloop
  endfacet
  facet normal -0.92388 -0.382683 0
    outer loop
      vertex -2.5 95 11
      vertex -1.76777 93.2322 0
      vertex -1.76777 93.2322 11
    endloop
  endfacet
  facet normal 0.382683 -0.92388 0
    outer loop
      vertex 0 92.5 10
      vertex 1.76777 93.2322 11
      vertex 0 92.5 11
    endloop
  endfacet
  facet normal 0.382683 -0.92388 0
    outer loop
      vertex 1.76777 93.2322 11
      vertex 0 92.5 10
      vertex 1.76777 93.2322 10
    endloop
  endfacet
  facet normal 0.92388 0.382683 0
    outer loop
      vertex 97.5 0 11
      vertex 96.7678 1.76777 10
      vertex 96.7678 1.76777 11
    endloop
  endfacet
  facet normal 0.92388 0.382683 0
    outer loop
      vertex 96.7678 1.76777 10
      vertex 97.5 0 11
      vertex 97.5 0 10
    endloop
  endfacet
  facet normal -0.382683 0.92388 0
    outer loop
      vertex 95 2.5 10
      vertex 93.2322 1.76777 11
      vertex 95 2.5 11
    endloop
  endfacet
  facet normal -0.382683 0.92388 0
    outer loop
      vertex 93.2322 1.76777 11
      vertex 95 2.5 10
      vertex 93.2322 1.76777 10
    endloop
  endfacet
  facet normal 0.382683 0.92388 -0
    outer loop
      vertex 96.7678 1.76777 10
      vertex 95 2.5 11
      vertex 96.7678 1.76777 11
    endloop
  endfacet
  facet normal 0.382683 0.92388 0
    outer loop
      vertex 95 2.5 11
      vertex 96.7678 1.76777 10
      vertex 95 2.5 10
    endloop
  endfacet
  facet normal 0 0 1
    outer loop
      vertex 96.7678 1.76777 11
      vertex 96.7678 -1.76777 11
      vertex 97.5 0 11
    endloop
  endfacet
  facet normal 0 0 1
    outer loop
      vertex 95 2.5 11
      vertex 96.7678 -1.76777 11
      vertex 96.7678 1.76777 11
    endloop
  endfacet
  facet normal 0 0 1
    outer loop
      vertex 95 2.5 11
      vertex 95 -2.5 11
      vertex 96.7678 -1.76777 11
    endloop
  endfacet
  facet normal -0 0 1
    outer loop
      vertex 93.2322 1.76777 11
      vertex 95 -2.5 11
      vertex 95 2.5 11
    endloop
  endfacet
  facet normal 0 0 1
    outer loop
      vertex 93.2322 1.76777 11
      vertex 93.2322 -1.76777 11
      vertex 95 -2.5 11
    endloop
  endfacet
  facet normal 0 -0 1
    outer loop
      vertex 93.2322 -1.76777 11
      vertex 93.2322 1.76777 11
      vertex 92.5 0 11
    endloop
  endfacet
  facet normal -0.92388 0.382683 0
    outer loop
      vertex 92.5 0 10
      vertex 93.2322 1.76777 11
      vertex 93.2322 1.76777 10
    endloop
  endfacet
  facet normal -0.92388 0.382683 0
    outer loop
      vertex 93.2322 1.76777 11
      vertex 92.5 0 10
      vertex 92.5 0 11
    endloop
  endfacet
  facet normal 0.92388 -0.382683 0
    outer loop
      vertex 96.7678 -1.76777 11
      vertex 97.5 0 10
      vertex 97.5 0 11
    endloop
  endfacet
  facet normal 0.92388 -0.382683 0
    outer loop
      vertex 96.7678 -1.76777 0
      vertex 97.5 0 10
      vertex 96.7678 -1.76777 11
    endloop
  endfacet
  facet normal 0.92388 -0.382683 0
    outer loop
      vertex 97.5 0 10
      vertex 96.7678 -1.76777 0
      vertex 97.5 0 0
    endloop
  endfacet
  facet normal -0.92388 -0.382683 0
    outer loop
      vertex 93.2322 -1.76777 0
      vertex 92.5 0 10
      vertex 92.5 0 0
    endloop
  endfacet
  facet normal -0.92388 -0.382683 -0
    outer loop
      vertex 93.2322 -1.76777 11
      vertex 92.5 0 10
      vertex 93.2322 -1.76777 0
    endloop
  endfacet
  facet normal -0.92388 -0.382683 0
    outer loop
      vertex 92.5 0 10
      vertex 93.2322 -1.76777 11
      vertex 92.5 0 11
    endloop
  endfacet
  facet normal 0.382683 -0.92388 0
    outer loop
      vertex 95 -2.5 0
      vertex 96.7678 -1.76777 11
      vertex 95 -2.5 11
    endloop
  endfacet
  facet normal 0.382683 -0.92388 0
    outer loop
      vertex 96.7678 -1.76777 11
      vertex 95 -2.5 0
      vertex 96.7678 -1.76777 0
    endloop
  endfacet
  facet normal -0.382683 -0.92388 0
    outer loop
      vertex 93.2322 -1.76777 0
      vertex 95 -2.5 11
      vertex 93.2322 -1.76777 11
    endloop
  endfacet
  facet normal -0.382683 -0.92388 -0
    outer loop
      vertex 95 -2.5 11
      vertex 93.2322 -1.76777 0
      vertex 95 -2.5 0
    endloop
  endfacet
endsolid OpenSCAD_Model
